<svg width="30" height="30" viewBox="0 0 30 30" fill="none" xmlns="http://www.w3.org/2000/svg">
<circle cx="15" cy="15" r="15" fill="#D2FF3A"/>
<path d="M4.09082 15.6815C4.09082 20.7724 7.12112 26.439 8.63627 28.636C9.54537 29.0905 10.9848 29.4693 11.5908 29.5451C9.92415 26.9693 6.72718 21.0905 6.36355 16.3633C5.909 10.4542 10.2721 7.94295 12.9545 7.27237C16.5908 6.36328 18.1817 6.81782 19.7726 7.49964C22.0225 8.46388 21.2551 11.0172 19.9999 12.2724C18.409 13.8633 14.5454 15.4542 12.4999 15.2269C10.4545 14.9996 12.0454 13.1815 14.5454 12.4996C16.0441 12.0909 17.8787 12.1209 18.6363 12.2724C18.6363 12.2724 19.0908 12.0451 19.5454 11.5905C20.0089 11.127 20.3029 10.7572 20.4545 10.4542C19.8484 10.3784 18.2272 10.0451 15.6817 10.2269C12.4999 10.4542 9.93514 12.5315 9.54537 14.0905C9.09082 15.9087 10.909 19.0905 17.9545 15.9087C24.9999 12.7269 23.409 8.86329 22.9545 7.95419C22.4999 7.0451 20.6817 4.31783 14.7726 4.77238C8.86355 5.22692 4.09082 9.31783 4.09082 15.6815Z" fill="black"/>
<path d="M23.6363 17.7269C24.7272 15.5451 23.712 13.8633 22.9545 13.4087C23.1363 13.2269 23.6363 12.1209 23.8635 11.5905C25.4545 12.7269 26.3181 14.1815 26.1363 16.3633C25.909 19.0905 23.8635 21.5905 19.7726 22.9542C15.6817 24.3178 12.0454 23.4087 11.3635 23.1815C10.6817 22.9542 9.77264 22.4996 9.99991 21.5905C10.2248 20.6911 11.0605 20.833 11.3635 20.9087C11.9696 21.136 13.4999 21.5905 15.6817 21.5905C18.409 21.5905 22.2726 20.4542 23.6363 17.7269Z" fill="black"/>
</svg>
