<svg width="64" height="16" viewBox="0 0 64 16" fill="none" xmlns="http://www.w3.org/2000/svg">
<mask id="path-1-outside-1_2042_1817" maskUnits="userSpaceOnUse" x="0" y="0" width="64" height="16" fill="black">
<rect fill="white" width="64" height="16"/>
<path fill-rule="evenodd" clip-rule="evenodd" d="M6.96562 14.3541H2.7314C1.51428 14.3541 1 13.8226 1 12.5198V2.8514C1 1.53142 1.51428 1 2.7314 1H6.77705C9.24558 1 10.6684 2.18284 10.6684 4.23995C10.6684 5.86849 9.96557 6.82848 8.49131 7.30847C10.2399 7.66846 11.1313 8.79987 11.1313 10.6513C11.1313 12.9827 9.60557 14.3541 6.96562 14.3541ZM2.59426 6.63991H6.69134C8.1656 6.63991 9.02273 5.81706 9.02273 4.44566C9.02273 3.10854 8.21703 2.42283 6.65705 2.42283H3.09139C2.76569 2.42283 2.59426 2.62854 2.59426 2.9714V6.63991ZM2.59426 8.0456V12.3655C2.59426 12.7427 2.76569 12.9312 3.14282 12.9312H6.77705C8.50845 12.9312 9.43415 12.0741 9.43415 10.497C9.43415 8.88559 8.49131 8.0456 6.74276 8.0456H2.59426ZM13.1298 11.2513V5.43993C13.1298 4.97708 13.4556 4.75422 13.9184 4.75422C14.3813 4.75422 14.707 4.97708 14.707 5.43993V10.9256C14.707 12.3998 15.307 13.2227 16.5755 13.2227C17.4841 13.2227 18.2212 12.7941 18.804 11.9884C19.2155 11.4055 19.3869 10.8741 19.3869 10.2056V5.43993C19.3869 4.97708 19.7126 4.75422 20.1754 4.75422C20.6212 4.75422 20.9469 4.97708 20.9469 5.43993V13.7712C20.9469 14.2341 20.6383 14.4569 20.1926 14.4569C19.7297 14.4569 19.404 14.2512 19.404 13.8226V13.3427C19.404 13.1541 19.4555 12.8112 19.5069 12.537C18.9755 13.7369 17.9812 14.6112 16.2669 14.6112C14.2441 14.6112 13.1298 13.3427 13.1298 11.2513ZM23.6499 5.42279V13.7712C23.6499 14.2341 23.9756 14.4569 24.4556 14.4569C24.8842 14.4569 25.227 14.2341 25.227 13.7712V9.03987C25.2442 8.31988 25.5013 7.6856 25.947 7.13704C26.3756 6.58848 26.9413 6.21134 27.6784 6.1942C28.0227 6.1942 28.2416 6.24125 28.47 6.29034L28.5012 6.29706C28.5527 6.3142 28.6041 6.3142 28.6555 6.3142C29.0155 6.3142 29.2555 6.00563 29.3241 5.64564C29.3412 5.54278 29.3584 5.43993 29.3584 5.35422C29.3584 5.02851 29.2041 4.78851 28.8098 4.73708C28.5698 4.68565 28.3813 4.65137 28.1241 4.65137C28.0041 4.65137 27.8841 4.65137 27.747 4.66851C26.2727 4.71994 25.3984 5.78278 25.1242 6.60562C25.1359 6.51139 25.1518 6.41512 25.1675 6.31962C25.1975 6.13716 25.227 5.95746 25.227 5.79992V5.42279C25.227 4.97708 24.8842 4.75422 24.4556 4.75422C23.9756 4.75422 23.6499 4.97708 23.6499 5.42279ZM31.0493 13.7712V5.42279C31.0493 4.97708 31.375 4.75422 31.855 4.75422C32.2836 4.75422 32.6265 4.97708 32.6265 5.42279V5.79992C32.6265 5.95746 32.5969 6.13715 32.5669 6.3196L32.5669 6.3197C32.5512 6.41518 32.5354 6.51141 32.5236 6.60562C32.7979 5.78278 33.6721 4.71994 35.1464 4.66851C35.2836 4.65137 35.4035 4.65137 35.5235 4.65137C35.7807 4.65137 35.9693 4.68565 36.2093 4.73708C36.6035 4.78851 36.7578 5.02851 36.7578 5.35422C36.7578 5.43993 36.7407 5.54278 36.7235 5.64564C36.655 6.00563 36.415 6.3142 36.055 6.3142C36.0035 6.3142 35.9521 6.3142 35.9007 6.29706L35.8694 6.29034C35.641 6.24125 35.4222 6.1942 35.0778 6.1942C34.3407 6.21134 33.775 6.58848 33.3464 7.13704C32.9007 7.6856 32.6436 8.31988 32.6265 9.03987V13.7712C32.6265 14.2341 32.2836 14.4569 31.855 14.4569C31.375 14.4569 31.0493 14.2341 31.0493 13.7712ZM56.4221 9.60534L55.2564 13.771C55.1192 14.2853 54.6907 14.4567 54.2107 14.4567C53.7478 14.4567 53.3707 14.2681 53.2164 13.771L50.7479 5.62826C50.7307 5.55969 50.7136 5.47398 50.7136 5.42255C50.7136 5.06256 51.005 4.85684 51.3307 4.78828L51.3691 4.78178C51.4556 4.76705 51.5323 4.75399 51.6221 4.75399C51.9307 4.75399 52.205 4.87399 52.3078 5.25112L53.4907 9.60534C53.7821 10.7025 54.0221 11.8682 54.245 13.1367C54.2695 12.997 54.2936 12.8586 54.3175 12.7214L54.3177 12.7205C54.5109 11.6118 54.6904 10.5814 54.9649 9.60534L56.0792 5.49112C56.2335 4.97684 56.6621 4.75399 57.142 4.75399C57.6392 4.75399 58.0677 4.97684 58.2049 5.49112L59.2677 9.60534C59.495 10.4574 59.6634 11.3801 59.8606 12.4611C59.9015 12.685 59.9436 12.9156 59.9877 13.1539C60.2277 11.7653 60.4849 10.6682 60.7763 9.60534L62.0277 5.25112C62.1305 4.89113 62.4048 4.75399 62.7305 4.75399C62.7991 4.75399 62.8848 4.75399 62.9534 4.77113C63.2791 4.8397 63.6048 5.06256 63.6048 5.42255C63.6048 5.47398 63.5877 5.55969 63.5705 5.62826L60.9648 13.771C60.8106 14.2681 60.4334 14.4567 59.9877 14.4567C59.4906 14.4567 59.062 14.2681 58.942 13.771L57.862 9.60534C57.5706 8.47393 57.3649 7.34252 57.142 6.05683L57.1306 6.1236L57.1306 6.12378C56.9127 7.39794 56.7253 8.49336 56.4221 9.60534ZM38.4582 7.99564C38.2476 8.62059 38.1423 9.24553 38.1423 9.87048C38.1423 11.2419 38.5923 12.4137 39.4922 13.3858C40.4496 14.4621 41.8091 15.0002 43.5708 15.0002C45.3324 15.0002 46.6919 14.4621 47.6493 13.3858C48.5493 12.3963 48.9992 11.2158 48.9992 9.84444C48.9992 8.49039 48.5493 7.30994 47.6493 6.30308C46.6919 5.24415 45.3324 4.71468 43.5708 4.71468C41.8091 4.71468 40.4496 5.24415 39.4922 6.30308C39.0327 6.80651 38.688 7.3707 38.4582 7.99564ZM40.1815 11.1985C40.0667 10.7298 40.0092 10.2871 40.0092 9.87048C40.0092 8.8289 40.2964 7.95224 40.8709 7.2405C41.5219 6.37252 42.4219 5.93853 43.5708 5.93853C44.7579 5.93853 45.6579 6.37252 46.2706 7.2405C46.8259 7.9696 47.1036 8.83758 47.1036 9.84444C47.1036 10.8166 46.8259 11.7019 46.2706 12.5005C45.677 13.3511 44.7771 13.7764 43.5708 13.7764C42.4219 13.7764 41.5219 13.3511 40.8709 12.5005C40.5454 12.1012 40.3156 11.6672 40.1815 11.1985Z"/>
</mask>
<path fill-rule="evenodd" clip-rule="evenodd" d="M6.96562 14.3541H2.7314C1.51428 14.3541 1 13.8226 1 12.5198V2.8514C1 1.53142 1.51428 1 2.7314 1H6.77705C9.24558 1 10.6684 2.18284 10.6684 4.23995C10.6684 5.86849 9.96557 6.82848 8.49131 7.30847C10.2399 7.66846 11.1313 8.79987 11.1313 10.6513C11.1313 12.9827 9.60557 14.3541 6.96562 14.3541ZM2.59426 6.63991H6.69134C8.1656 6.63991 9.02273 5.81706 9.02273 4.44566C9.02273 3.10854 8.21703 2.42283 6.65705 2.42283H3.09139C2.76569 2.42283 2.59426 2.62854 2.59426 2.9714V6.63991ZM2.59426 8.0456V12.3655C2.59426 12.7427 2.76569 12.9312 3.14282 12.9312H6.77705C8.50845 12.9312 9.43415 12.0741 9.43415 10.497C9.43415 8.88559 8.49131 8.0456 6.74276 8.0456H2.59426ZM13.1298 11.2513V5.43993C13.1298 4.97708 13.4556 4.75422 13.9184 4.75422C14.3813 4.75422 14.707 4.97708 14.707 5.43993V10.9256C14.707 12.3998 15.307 13.2227 16.5755 13.2227C17.4841 13.2227 18.2212 12.7941 18.804 11.9884C19.2155 11.4055 19.3869 10.8741 19.3869 10.2056V5.43993C19.3869 4.97708 19.7126 4.75422 20.1754 4.75422C20.6212 4.75422 20.9469 4.97708 20.9469 5.43993V13.7712C20.9469 14.2341 20.6383 14.4569 20.1926 14.4569C19.7297 14.4569 19.404 14.2512 19.404 13.8226V13.3427C19.404 13.1541 19.4555 12.8112 19.5069 12.537C18.9755 13.7369 17.9812 14.6112 16.2669 14.6112C14.2441 14.6112 13.1298 13.3427 13.1298 11.2513ZM23.6499 5.42279V13.7712C23.6499 14.2341 23.9756 14.4569 24.4556 14.4569C24.8842 14.4569 25.227 14.2341 25.227 13.7712V9.03987C25.2442 8.31988 25.5013 7.6856 25.947 7.13704C26.3756 6.58848 26.9413 6.21134 27.6784 6.1942C28.0227 6.1942 28.2416 6.24125 28.47 6.29034L28.5012 6.29706C28.5527 6.3142 28.6041 6.3142 28.6555 6.3142C29.0155 6.3142 29.2555 6.00563 29.3241 5.64564C29.3412 5.54278 29.3584 5.43993 29.3584 5.35422C29.3584 5.02851 29.2041 4.78851 28.8098 4.73708C28.5698 4.68565 28.3813 4.65137 28.1241 4.65137C28.0041 4.65137 27.8841 4.65137 27.747 4.66851C26.2727 4.71994 25.3984 5.78278 25.1242 6.60562C25.1359 6.51139 25.1518 6.41512 25.1675 6.31962C25.1975 6.13716 25.227 5.95746 25.227 5.79992V5.42279C25.227 4.97708 24.8842 4.75422 24.4556 4.75422C23.9756 4.75422 23.6499 4.97708 23.6499 5.42279ZM31.0493 13.7712V5.42279C31.0493 4.97708 31.375 4.75422 31.855 4.75422C32.2836 4.75422 32.6265 4.97708 32.6265 5.42279V5.79992C32.6265 5.95746 32.5969 6.13715 32.5669 6.3196L32.5669 6.3197C32.5512 6.41518 32.5354 6.51141 32.5236 6.60562C32.7979 5.78278 33.6721 4.71994 35.1464 4.66851C35.2836 4.65137 35.4035 4.65137 35.5235 4.65137C35.7807 4.65137 35.9693 4.68565 36.2093 4.73708C36.6035 4.78851 36.7578 5.02851 36.7578 5.35422C36.7578 5.43993 36.7407 5.54278 36.7235 5.64564C36.655 6.00563 36.415 6.3142 36.055 6.3142C36.0035 6.3142 35.9521 6.3142 35.9007 6.29706L35.8694 6.29034C35.641 6.24125 35.4222 6.1942 35.0778 6.1942C34.3407 6.21134 33.775 6.58848 33.3464 7.13704C32.9007 7.6856 32.6436 8.31988 32.6265 9.03987V13.7712C32.6265 14.2341 32.2836 14.4569 31.855 14.4569C31.375 14.4569 31.0493 14.2341 31.0493 13.7712ZM56.4221 9.60534L55.2564 13.771C55.1192 14.2853 54.6907 14.4567 54.2107 14.4567C53.7478 14.4567 53.3707 14.2681 53.2164 13.771L50.7479 5.62826C50.7307 5.55969 50.7136 5.47398 50.7136 5.42255C50.7136 5.06256 51.005 4.85684 51.3307 4.78828L51.3691 4.78178C51.4556 4.76705 51.5323 4.75399 51.6221 4.75399C51.9307 4.75399 52.205 4.87399 52.3078 5.25112L53.4907 9.60534C53.7821 10.7025 54.0221 11.8682 54.245 13.1367C54.2695 12.997 54.2936 12.8586 54.3175 12.7214L54.3177 12.7205C54.5109 11.6118 54.6904 10.5814 54.9649 9.60534L56.0792 5.49112C56.2335 4.97684 56.6621 4.75399 57.142 4.75399C57.6392 4.75399 58.0677 4.97684 58.2049 5.49112L59.2677 9.60534C59.495 10.4574 59.6634 11.3801 59.8606 12.4611C59.9015 12.685 59.9436 12.9156 59.9877 13.1539C60.2277 11.7653 60.4849 10.6682 60.7763 9.60534L62.0277 5.25112C62.1305 4.89113 62.4048 4.75399 62.7305 4.75399C62.7991 4.75399 62.8848 4.75399 62.9534 4.77113C63.2791 4.8397 63.6048 5.06256 63.6048 5.42255C63.6048 5.47398 63.5877 5.55969 63.5705 5.62826L60.9648 13.771C60.8106 14.2681 60.4334 14.4567 59.9877 14.4567C59.4906 14.4567 59.062 14.2681 58.942 13.771L57.862 9.60534C57.5706 8.47393 57.3649 7.34252 57.142 6.05683L57.1306 6.1236L57.1306 6.12378C56.9127 7.39794 56.7253 8.49336 56.4221 9.60534ZM38.4582 7.99564C38.2476 8.62059 38.1423 9.24553 38.1423 9.87048C38.1423 11.2419 38.5923 12.4137 39.4922 13.3858C40.4496 14.4621 41.8091 15.0002 43.5708 15.0002C45.3324 15.0002 46.6919 14.4621 47.6493 13.3858C48.5493 12.3963 48.9992 11.2158 48.9992 9.84444C48.9992 8.49039 48.5493 7.30994 47.6493 6.30308C46.6919 5.24415 45.3324 4.71468 43.5708 4.71468C41.8091 4.71468 40.4496 5.24415 39.4922 6.30308C39.0327 6.80651 38.688 7.3707 38.4582 7.99564ZM40.1815 11.1985C40.0667 10.7298 40.0092 10.2871 40.0092 9.87048C40.0092 8.8289 40.2964 7.95224 40.8709 7.2405C41.5219 6.37252 42.4219 5.93853 43.5708 5.93853C44.7579 5.93853 45.6579 6.37252 46.2706 7.2405C46.8259 7.9696 47.1036 8.83758 47.1036 9.84444C47.1036 10.8166 46.8259 11.7019 46.2706 12.5005C45.677 13.3511 44.7771 13.7764 43.5708 13.7764C42.4219 13.7764 41.5219 13.3511 40.8709 12.5005C40.5454 12.1012 40.3156 11.6672 40.1815 11.1985Z" fill="white"/>
<path d="M8.49131 7.30847L8.42939 7.11829L7.71133 7.35208L8.45098 7.50436L8.49131 7.30847ZM2.59426 6.63991H2.39426V6.83991H2.59426V6.63991ZM2.59426 8.0456V7.8456H2.39426V8.0456H2.59426ZM18.804 11.9884L18.9661 12.1056L18.9674 12.1037L18.804 11.9884ZM19.5069 12.537L19.7035 12.5738L19.324 12.456L19.5069 12.537ZM25.227 9.03987L25.027 9.03511V9.03987H25.227ZM25.947 7.13704L26.1023 7.26318L26.1046 7.26017L25.947 7.13704ZM27.6784 6.1942V5.99415L27.6738 5.99426L27.6784 6.1942ZM28.47 6.29034L28.4279 6.48588L28.428 6.48588L28.47 6.29034ZM28.5012 6.29706L28.5645 6.10732L28.554 6.10383L28.5432 6.10151L28.5012 6.29706ZM29.3241 5.64564L29.5206 5.68307L29.5214 5.67852L29.3241 5.64564ZM28.8098 4.73708L28.7679 4.93264L28.7759 4.93435L28.7839 4.9354L28.8098 4.73708ZM27.747 4.66851L27.754 4.86839L27.7629 4.86808L27.7718 4.86697L27.747 4.66851ZM25.1242 6.60562L24.9257 6.58082L25.3139 6.66887L25.1242 6.60562ZM25.1675 6.31962L25.3648 6.35207V6.35207L25.1675 6.31962ZM32.5669 6.3196L32.764 6.3534L32.7643 6.35205L32.5669 6.3196ZM32.5669 6.3197L32.3698 6.28591L32.3695 6.28726L32.5669 6.3197ZM32.5236 6.60562L32.3251 6.58082L32.7133 6.66887L32.5236 6.60562ZM35.1464 4.66851L35.1534 4.86839L35.1623 4.86808L35.1712 4.86697L35.1464 4.66851ZM36.2093 4.73708L36.1673 4.93264L36.1753 4.93435L36.1834 4.9354L36.2093 4.73708ZM36.7235 5.64564L36.92 5.68307L36.9208 5.67852L36.7235 5.64564ZM35.9007 6.29706L35.9639 6.10732L35.9535 6.10383L35.9427 6.10151L35.9007 6.29706ZM35.8694 6.29034L35.8274 6.48587L35.8274 6.48588L35.8694 6.29034ZM35.0778 6.1942V5.99415L35.0732 5.99426L35.0778 6.1942ZM33.3464 7.13704L33.5017 7.26318L33.504 7.26017L33.3464 7.13704ZM32.6265 9.03987L32.4265 9.03511V9.03987H32.6265ZM55.2564 13.771L55.0638 13.7171L55.0631 13.7195L55.2564 13.771ZM56.4221 9.60534L56.6147 9.65924L56.615 9.65796L56.4221 9.60534ZM53.2164 13.771L53.025 13.829L53.0254 13.8303L53.2164 13.771ZM50.7479 5.62826L50.5536 5.67682L50.5565 5.68628L50.7479 5.62826ZM51.3307 4.78828L51.2974 4.59091L51.2895 4.59256L51.3307 4.78828ZM51.3691 4.78178L51.4025 4.97898L51.4027 4.97894L51.3691 4.78178ZM52.3078 5.25112L52.5008 5.19869L52.5008 5.1985L52.3078 5.25112ZM53.4907 9.60534L53.684 9.55399L53.6837 9.55291L53.4907 9.60534ZM54.245 13.1367L54.048 13.1713L54.4419 13.1713L54.245 13.1367ZM54.3175 12.7214L54.1207 12.6861L54.1205 12.687L54.3175 12.7214ZM54.3177 12.7205L54.5145 12.7558L54.5147 12.7549L54.3177 12.7205ZM54.9649 9.60534L55.1575 9.65949L55.158 9.65762L54.9649 9.60534ZM56.0792 5.49112L55.8876 5.43363L55.8862 5.43884L56.0792 5.49112ZM58.2049 5.49112L58.3985 5.44109L58.3981 5.43959L58.2049 5.49112ZM59.2677 9.60534L59.0741 9.65536L59.0745 9.65687L59.2677 9.60534ZM59.8606 12.4611L59.6639 12.497V12.497L59.8606 12.4611ZM59.9877 13.1539L59.7911 13.1903L60.1848 13.1879L59.9877 13.1539ZM60.7763 9.60534L60.584 9.55009L60.5834 9.55245L60.7763 9.60534ZM62.0277 5.25112L62.2199 5.30637L62.22 5.30607L62.0277 5.25112ZM62.9534 4.77113L62.9048 4.9653L62.9122 4.96684L62.9534 4.77113ZM63.5705 5.62826L63.7614 5.68934L63.7645 5.67677L63.5705 5.62826ZM60.9648 13.771L60.7744 13.71L60.7738 13.7117L60.9648 13.771ZM58.942 13.771L59.1365 13.7241L59.1356 13.7208L58.942 13.771ZM57.862 9.60534L57.6684 9.65522L57.6684 9.65553L57.862 9.60534ZM57.142 6.05683L57.3391 6.02267L56.9449 6.02311L57.142 6.05683ZM57.1306 6.1236L57.3272 6.16074L57.3278 6.15732L57.1306 6.1236ZM57.1306 6.12378L56.934 6.08664L56.9335 6.09007L57.1306 6.12378ZM38.4582 7.99564L38.2704 7.9266L38.2687 7.93177L38.4582 7.99564ZM39.4922 13.3858L39.6417 13.2528L39.639 13.2499L39.4922 13.3858ZM47.6493 13.3858L47.5013 13.2512L47.4999 13.2529L47.6493 13.3858ZM47.6493 6.30308L47.7984 6.1698L47.7977 6.16895L47.6493 6.30308ZM39.4922 6.30308L39.6399 6.43793L39.6406 6.43721L39.4922 6.30308ZM40.1815 11.1985L39.9872 11.2461L39.9893 11.2535L40.1815 11.1985ZM40.8709 7.2405L41.0266 7.36619L41.0309 7.36051L40.8709 7.2405ZM46.2706 7.2405L46.1071 7.35592L46.1115 7.36168L46.2706 7.2405ZM46.2706 12.5005L46.4346 12.6149L46.4348 12.6146L46.2706 12.5005ZM40.8709 12.5005L41.0298 12.3788L41.0259 12.3741L40.8709 12.5005ZM2.7314 14.5541H6.96562V14.1541H2.7314V14.5541ZM0.8 12.5198C0.8 13.1906 0.931154 13.7123 1.26423 14.0632C1.59972 14.4166 2.09895 14.5541 2.7314 14.5541V14.1541C2.14672 14.1541 1.78025 14.0258 1.55433 13.7878C1.32599 13.5473 1.2 13.1518 1.2 12.5198H0.8ZM0.8 2.8514V12.5198H1.2V2.8514H0.8ZM2.7314 0.8C2.09896 0.8 1.59932 0.937451 1.26373 1.29354C0.930917 1.64667 0.8 2.17258 0.8 2.8514H1.2C1.2 2.21024 1.32622 1.81044 1.55483 1.56788C1.78066 1.32826 2.14672 1.2 2.7314 1.2V0.8ZM6.77705 0.8H2.7314V1.2H6.77705V0.8ZM10.8684 4.23995C10.8684 3.16189 10.4934 2.29159 9.77637 1.69483C9.06459 1.10245 8.04039 0.8 6.77705 0.8V1.2C7.98224 1.2 8.90372 1.48897 9.52049 2.00228C10.132 2.51123 10.4684 3.2609 10.4684 4.23995H10.8684ZM8.55322 7.49864C9.31893 7.24934 9.9041 6.8686 10.2954 6.32123C10.6864 5.77432 10.8684 5.08263 10.8684 4.23995H10.4684C10.4684 5.0258 10.299 5.62839 9.97001 6.0886C9.64134 6.54835 9.13795 6.8876 8.42939 7.11829L8.55322 7.49864ZM11.3313 10.6513C11.3313 9.69394 11.1005 8.90046 10.624 8.29668C10.1468 7.69205 9.44041 7.29968 8.53164 7.11258L8.45098 7.50436C9.29075 7.67725 9.90438 8.03059 10.31 8.5445C10.7163 9.05928 10.9313 9.7572 10.9313 10.6513H11.3313ZM6.96562 14.5541C8.31832 14.5541 9.41286 14.2026 10.1715 13.5262C10.9334 12.847 11.3313 11.8625 11.3313 10.6513H10.9313C10.9313 11.7714 10.5663 12.6383 9.90533 13.2277C9.24116 13.8198 8.25288 14.1541 6.96562 14.1541V14.5541ZM6.69134 6.43991H2.59426V6.83991H6.69134V6.43991ZM8.82273 4.44566C8.82273 5.0888 8.62287 5.58018 8.27242 5.91179C7.92054 6.24475 7.39219 6.43991 6.69134 6.43991V6.83991C7.46474 6.83991 8.10209 6.62364 8.54734 6.20233C8.99402 5.77967 9.22273 5.17392 9.22273 4.44566H8.82273ZM6.65705 2.62283C7.41195 2.62283 7.94885 2.78929 8.29499 3.08491C8.63539 3.37563 8.82273 3.81852 8.82273 4.44566H9.22273C9.22273 3.73568 9.00721 3.16716 8.55477 2.78074C8.10806 2.39923 7.46213 2.22283 6.65705 2.22283V2.62283ZM3.09139 2.62283H6.65705V2.22283H3.09139V2.62283ZM2.79426 2.9714C2.79426 2.83079 2.82947 2.74733 2.87036 2.70121C2.90789 2.65886 2.97235 2.62283 3.09139 2.62283V2.22283C2.88473 2.22283 2.70062 2.28967 2.57102 2.43588C2.44476 2.57833 2.39426 2.76915 2.39426 2.9714H2.79426ZM2.79426 6.63991V2.9714H2.39426V6.63991H2.79426ZM2.79426 12.3655V8.0456H2.39426V12.3655H2.79426ZM3.14282 12.7312C2.98506 12.7312 2.91025 12.692 2.87179 12.6517C2.83156 12.6096 2.79426 12.5279 2.79426 12.3655H2.39426C2.39426 12.5803 2.44268 12.7815 2.58244 12.9279C2.72397 13.0762 2.92345 13.1312 3.14282 13.1312V12.7312ZM6.77705 12.7312H3.14282V13.1312H6.77705V12.7312ZM9.23415 10.497C9.23415 11.2461 9.01541 11.7946 8.61957 12.1582C8.22094 12.5244 7.61234 12.7312 6.77705 12.7312V13.1312C7.67316 13.1312 8.39311 12.9095 8.89018 12.4528C9.39004 11.9936 9.63415 11.325 9.63415 10.497H9.23415ZM6.74276 8.2456C7.58806 8.2456 8.20528 8.4488 8.6099 8.81526C9.01113 9.17863 9.23415 9.73067 9.23415 10.497H9.63415C9.63415 9.65191 9.38575 8.97824 8.87842 8.51878C8.37449 8.06239 7.64602 7.8456 6.74276 7.8456V8.2456ZM2.59426 8.2456H6.74276V7.8456H2.59426V8.2456ZM12.9298 5.43993V11.2513H13.3298V5.43993H12.9298ZM13.9184 4.55422C13.658 4.55422 13.4105 4.61661 13.2242 4.7685C13.0318 4.92539 12.9298 5.15737 12.9298 5.43993H13.3298C13.3298 5.25963 13.3908 5.14877 13.4769 5.07851C13.5692 5.00326 13.716 4.95422 13.9184 4.95422V4.55422ZM14.907 5.43993C14.907 5.15737 14.805 4.92539 14.6126 4.7685C14.4264 4.61661 14.1788 4.55422 13.9184 4.55422V4.95422C14.1209 4.95422 14.2676 5.00326 14.3599 5.07851C14.446 5.14877 14.507 5.25963 14.507 5.43993H14.907ZM14.907 10.9256V5.43993H14.507V10.9256H14.907ZM16.5755 13.0227C15.9877 13.0227 15.5848 12.8345 15.3224 12.5029C15.0532 12.1627 14.907 11.6405 14.907 10.9256H14.507C14.507 11.6848 14.6607 12.3112 15.0087 12.751C15.3634 13.1994 15.8948 13.4227 16.5755 13.4227V13.0227ZM18.642 11.8712C18.0897 12.6346 17.4087 13.0227 16.5755 13.0227V13.4227C17.5594 13.4227 18.3527 12.9536 18.9661 12.1056L18.642 11.8712ZM19.1869 10.2056C19.1869 10.8307 19.0295 11.3222 18.6406 11.8731L18.9674 12.1037C19.4014 11.4889 19.5869 10.9176 19.5869 10.2056H19.1869ZM19.1869 5.43993V10.2056H19.5869V5.43993H19.1869ZM20.1754 4.55422C19.9151 4.55422 19.6675 4.61661 19.4812 4.7685C19.2888 4.92539 19.1869 5.15737 19.1869 5.43993H19.5869C19.5869 5.25963 19.6478 5.14877 19.734 5.07851C19.8263 5.00326 19.973 4.95422 20.1754 4.95422V4.55422ZM21.1469 5.43993C21.1469 5.15752 21.0451 4.92619 20.8559 4.76947C20.6722 4.61735 20.4288 4.55422 20.1754 4.55422V4.95422C20.3678 4.95422 20.5101 5.00252 20.6007 5.07755C20.6858 5.14796 20.7469 5.25948 20.7469 5.43993H21.1469ZM21.1469 13.7712V5.43993H20.7469V13.7712H21.1469ZM20.1926 14.6569C20.4461 14.6569 20.6866 14.5937 20.8668 14.4397C21.0519 14.2814 21.1469 14.05 21.1469 13.7712H20.7469C20.7469 13.9552 20.6875 14.0667 20.6069 14.1356C20.5214 14.2087 20.3848 14.2569 20.1926 14.2569V14.6569ZM19.204 13.8226C19.204 14.0939 19.3105 14.314 19.5043 14.4602C19.6902 14.6003 19.9353 14.6569 20.1926 14.6569V14.2569C19.987 14.2569 19.8379 14.2107 19.7451 14.1408C19.6605 14.077 19.604 13.98 19.604 13.8226H19.204ZM19.204 13.3427V13.8226H19.604V13.3427H19.204ZM19.3103 12.5001C19.2591 12.7734 19.204 13.1332 19.204 13.3427H19.604C19.604 13.175 19.6519 12.8491 19.7035 12.5738L19.3103 12.5001ZM16.2669 14.8112C17.1597 14.8112 17.8779 14.5829 18.4448 14.1882C19.0104 13.7943 19.4127 13.2436 19.6898 12.6179L19.324 12.456C19.0697 13.0303 18.7091 13.5167 18.2162 13.8599C17.7245 14.2023 17.0884 14.4112 16.2669 14.4112V14.8112ZM12.9298 11.2513C12.9298 12.3308 13.2176 13.2249 13.7925 13.8508C14.3698 14.4792 15.2124 14.8112 16.2669 14.8112V14.4112C15.2986 14.4112 14.5728 14.1089 14.0871 13.5802C13.5992 13.049 13.3298 12.2631 13.3298 11.2513H12.9298ZM23.8499 13.7712V5.42279H23.4499V13.7712H23.8499ZM24.4556 14.2569C24.2431 14.2569 24.092 14.2072 23.998 14.1317C23.9107 14.0616 23.8499 13.9514 23.8499 13.7712H23.4499C23.4499 14.0539 23.552 14.2866 23.7475 14.4436C23.9364 14.5952 24.1881 14.6569 24.4556 14.6569V14.2569ZM25.027 13.7712C25.027 13.9483 24.9641 14.0605 24.8756 14.1326C24.7816 14.2093 24.6379 14.2569 24.4556 14.2569V14.6569C24.7019 14.6569 24.9439 14.5931 25.1284 14.4426C25.3186 14.2876 25.427 14.057 25.427 13.7712H25.027ZM25.027 9.03987V13.7712H25.427V9.03987H25.027ZM25.7918 7.01092C25.3208 7.59062 25.0454 8.26682 25.0271 9.03511L25.427 9.04463C25.443 8.37295 25.6818 7.78059 26.1022 7.26316L25.7918 7.01092ZM27.6738 5.99426C26.8611 6.01315 26.2441 6.43194 25.7894 7.01391L26.1046 7.26017C26.5071 6.74502 27.0214 6.40953 27.6831 6.39415L27.6738 5.99426ZM28.512 6.09481C28.2805 6.04503 28.0447 5.9942 27.6784 5.9942V6.3942C28.0008 6.3942 28.2027 6.43746 28.4279 6.48588L28.512 6.09481ZM28.5432 6.10151L28.512 6.0948L28.428 6.48588L28.4593 6.4926L28.5432 6.10151ZM28.6555 6.1142C28.5996 6.1142 28.5804 6.11262 28.5645 6.10732L28.438 6.48679C28.525 6.51578 28.6086 6.5142 28.6555 6.5142V6.1142ZM29.1276 5.60822C29.0679 5.9216 28.878 6.1142 28.6555 6.1142V6.5142C29.153 6.5142 29.4431 6.08966 29.5206 5.68306L29.1276 5.60822ZM29.1584 5.35422C29.1584 5.4199 29.1448 5.50479 29.1268 5.61276L29.5214 5.67852C29.5377 5.58077 29.5584 5.45996 29.5584 5.35422H29.1584ZM28.7839 4.9354C28.9441 4.95629 29.0294 5.01118 29.0773 5.06961C29.127 5.13018 29.1584 5.22137 29.1584 5.35422H29.5584C29.5584 5.16135 29.5126 4.96969 29.3866 4.81598C29.2588 4.66013 29.0699 4.56931 28.8357 4.53876L28.7839 4.9354ZM28.1241 4.85137C28.3601 4.85137 28.5324 4.88218 28.7679 4.93264L28.8517 4.54152C28.6072 4.48913 28.4024 4.45137 28.1241 4.45137V4.85137ZM27.7718 4.86697C27.895 4.85157 28.0034 4.85137 28.1241 4.85137V4.45137C28.0049 4.45137 27.8732 4.45117 27.7222 4.47006L27.7718 4.86697ZM25.3139 6.66887C25.569 5.90362 26.3839 4.91618 27.754 4.86839L27.74 4.46863C26.1616 4.5237 25.2279 5.66193 24.9344 6.54238L25.3139 6.66887ZM24.9701 6.28717C24.9545 6.38197 24.938 6.48209 24.9257 6.58082L25.3226 6.63043C25.3338 6.54069 25.349 6.44828 25.3648 6.35207L24.9701 6.28717ZM25.027 5.79992C25.027 5.93785 25.0009 6.1002 24.9701 6.28717L25.3648 6.35207C25.3941 6.17412 25.427 5.97708 25.427 5.79992H25.027ZM25.027 5.42279V5.79992H25.427V5.42279H25.027ZM24.4556 4.95422C24.6379 4.95422 24.7825 5.00185 24.8771 5.07754C24.966 5.14864 25.027 5.2568 25.027 5.42279H25.427C25.427 5.14307 25.3166 4.91694 25.127 4.76519C24.943 4.61803 24.7019 4.55422 24.4556 4.55422V4.95422ZM23.8499 5.42279C23.8499 5.25372 23.9088 5.14756 23.9965 5.07846C24.0911 5.00393 24.2432 4.95422 24.4556 4.95422V4.55422C24.188 4.55422 23.9372 4.61595 23.749 4.76427C23.5538 4.91802 23.4499 5.14614 23.4499 5.42279H23.8499ZM30.8493 5.42279V13.7712H31.2493V5.42279H30.8493ZM31.855 4.55422C31.5875 4.55422 31.3367 4.61595 31.1484 4.76427C30.9533 4.91802 30.8493 5.14614 30.8493 5.42279H31.2493C31.2493 5.25372 31.3083 5.14756 31.396 5.07846C31.4906 5.00393 31.6426 4.95422 31.855 4.95422V4.55422ZM32.8265 5.42279C32.8265 5.14307 32.7161 4.91694 32.5264 4.76519C32.3424 4.61803 32.1013 4.55422 31.855 4.55422V4.95422C32.0373 4.95422 32.1819 5.00185 32.2765 5.07754C32.3654 5.14864 32.4265 5.2568 32.4265 5.42279H32.8265ZM32.8265 5.79992V5.42279H32.4265V5.79992H32.8265ZM32.7643 6.35205C32.7935 6.17411 32.8265 5.97707 32.8265 5.79992H32.4265C32.4265 5.93784 32.4003 6.10019 32.3696 6.28716L32.7643 6.35205ZM32.764 6.3535L32.764 6.3534L32.3698 6.28581L32.3698 6.28591L32.764 6.3535ZM32.7221 6.63043C32.7333 6.54071 32.7484 6.44833 32.7642 6.35215L32.3695 6.28726C32.354 6.38203 32.3375 6.48212 32.3251 6.58082L32.7221 6.63043ZM35.1394 4.46863C33.561 4.5237 32.6273 5.66193 32.3339 6.54238L32.7133 6.66887C32.9684 5.90362 33.7833 4.91618 35.1534 4.86839L35.1394 4.46863ZM35.5235 4.45137C35.4043 4.45137 35.2727 4.45117 35.1216 4.47006L35.1712 4.86697C35.2944 4.85157 35.4028 4.85137 35.5235 4.85137V4.45137ZM36.2512 4.54152C36.0067 4.48913 35.8018 4.45137 35.5235 4.45137V4.85137C35.7595 4.85137 35.9319 4.88218 36.1673 4.93264L36.2512 4.54152ZM36.9578 5.35422C36.9578 5.16135 36.9121 4.96969 36.786 4.81598C36.6582 4.66013 36.4693 4.56931 36.2351 4.53876L36.1834 4.9354C36.3435 4.95629 36.4288 5.01118 36.4767 5.06961C36.5264 5.13018 36.5578 5.22137 36.5578 5.35422H36.9578ZM36.9208 5.67852C36.9371 5.58077 36.9578 5.45996 36.9578 5.35422H36.5578C36.5578 5.4199 36.5442 5.5048 36.5263 5.61276L36.9208 5.67852ZM36.055 6.5142C36.5525 6.5142 36.8425 6.08966 36.92 5.68306L36.5271 5.60821C36.4674 5.9216 36.2775 6.1142 36.055 6.1142V6.5142ZM35.8374 6.48679C35.9244 6.51578 36.0081 6.5142 36.055 6.5142V6.1142C35.999 6.1142 35.9798 6.11262 35.9639 6.10732L35.8374 6.48679ZM35.8274 6.48588L35.8587 6.4926L35.9427 6.10151L35.9114 6.0948L35.8274 6.48588ZM35.0778 6.3942C35.4002 6.3942 35.6021 6.43746 35.8274 6.48587L35.9114 6.09481C35.6799 6.04503 35.4441 5.9942 35.0778 5.9942V6.3942ZM33.504 7.26017C33.9065 6.74502 34.4208 6.40953 35.0825 6.39415L35.0732 5.99426C34.2606 6.01315 33.6435 6.43194 33.1888 7.01391L33.504 7.26017ZM32.8264 9.04463C32.8424 8.37295 33.0812 7.78059 33.5017 7.26316L33.1912 7.01092C32.7202 7.59062 32.4448 8.26682 32.4265 9.03511L32.8264 9.04463ZM32.8265 13.7712V9.03987H32.4265V13.7712H32.8265ZM31.855 14.6569C32.1013 14.6569 32.3433 14.5931 32.5278 14.4426C32.718 14.2876 32.8265 14.057 32.8265 13.7712H32.4265C32.4265 13.9483 32.3635 14.0605 32.2751 14.1326C32.181 14.2093 32.0373 14.2569 31.855 14.2569V14.6569ZM30.8493 13.7712C30.8493 14.0539 30.9514 14.2866 31.147 14.4436C31.3358 14.5952 31.5875 14.6569 31.855 14.6569V14.2569C31.6425 14.2569 31.4914 14.2072 31.3974 14.1317C31.3101 14.0616 31.2493 13.9514 31.2493 13.7712H30.8493ZM55.449 13.8249L56.6147 9.65924L56.2295 9.55144L55.0638 13.7171L55.449 13.8249ZM54.2107 14.6567C54.4718 14.6567 54.7375 14.6105 54.9626 14.4796C55.1936 14.3453 55.3677 14.1297 55.4496 13.8225L55.0631 13.7195C55.0079 13.9266 54.8991 14.0538 54.7616 14.1338C54.6181 14.2172 54.4295 14.2567 54.2107 14.2567V14.6567ZM53.0254 13.8303C53.1149 14.1187 53.2746 14.3314 53.4903 14.4689C53.7028 14.6044 53.9534 14.6567 54.2107 14.6567V14.2567C54.0051 14.2567 53.8357 14.2147 53.7053 14.1316C53.5782 14.0506 53.4722 13.9204 53.4074 13.7117L53.0254 13.8303ZM50.5565 5.68628L53.025 13.829L53.4078 13.713L50.9393 5.57024L50.5565 5.68628ZM50.5136 5.42255C50.5136 5.50138 50.5369 5.60882 50.5538 5.67676L50.9419 5.57976C50.9246 5.51056 50.9136 5.44658 50.9136 5.42255H50.5136ZM51.2895 4.59256C50.9234 4.66965 50.5136 4.92337 50.5136 5.42255H50.9136C50.9136 5.20174 51.0867 5.04404 51.3719 4.98399L51.2895 4.59256ZM51.3358 4.58458L51.2974 4.59107L51.3641 4.98548L51.4025 4.97898L51.3358 4.58458ZM51.6221 4.55399C51.5131 4.55399 51.4205 4.57016 51.3356 4.58462L51.4027 4.97894C51.4907 4.96395 51.5516 4.95399 51.6221 4.95399V4.55399ZM52.5008 5.1985C52.4381 4.96851 52.317 4.80009 52.1503 4.69289C51.9878 4.58841 51.8004 4.55399 51.6221 4.55399V4.95399C51.7524 4.95399 51.8565 4.97956 51.934 5.02937C52.0072 5.07646 52.0748 5.1566 52.1149 5.30375L52.5008 5.1985ZM53.6837 9.55291L52.5008 5.19869L52.1148 5.30355L53.2977 9.65777L53.6837 9.55291ZM54.4419 13.1021C54.2185 11.8303 53.9774 10.6585 53.684 9.55399L53.2974 9.65668C53.5868 10.7464 53.8257 11.906 54.048 13.1713L54.4419 13.1021ZM54.1205 12.687C54.0966 12.8243 54.0725 12.9626 54.048 13.1021L54.4419 13.1713C54.4665 13.0315 54.4907 12.8929 54.5146 12.7557L54.1205 12.687ZM54.1208 12.6852L54.1207 12.6861L54.5144 12.7567L54.5145 12.7558L54.1208 12.6852ZM54.7724 9.55119C54.4946 10.5388 54.3135 11.5795 54.1206 12.6862L54.5147 12.7549C54.7083 11.644 54.8862 10.624 55.1575 9.65949L54.7724 9.55119ZM55.8862 5.43884L54.7719 9.55305L55.158 9.65762L56.2723 5.5434L55.8862 5.43884ZM57.142 4.55399C56.5973 4.55399 56.0735 4.8142 55.8876 5.43365L56.2708 5.54859C56.3935 5.13948 56.7268 4.95399 57.142 4.95399V4.55399ZM58.3981 5.43959C58.3171 5.1357 58.1462 4.90922 57.9167 4.76153C57.6906 4.61597 57.4191 4.55399 57.142 4.55399V4.95399C57.3621 4.95399 57.5535 5.00343 57.7002 5.09787C57.8436 5.19017 57.9555 5.33226 58.0116 5.54265L58.3981 5.43959ZM59.4614 9.55531L58.3985 5.4411L58.0112 5.54114L59.0741 9.65536L59.4614 9.55531ZM60.0574 12.4252C59.8605 11.3462 59.6907 10.4151 59.461 9.55381L59.0745 9.65687C59.2992 10.4997 59.4662 11.414 59.6639 12.497L60.0574 12.4252ZM60.1844 13.1174C60.1403 12.8795 60.0983 12.6491 60.0574 12.4252L59.6639 12.497C59.7047 12.7208 59.7469 12.9518 59.7911 13.1903L60.1844 13.1174ZM60.5834 9.55245C60.2904 10.621 60.0318 11.7244 59.7906 13.1198L60.1848 13.1879C60.4236 11.8062 60.6793 10.7154 60.9692 9.65823L60.5834 9.55245ZM61.8355 5.19588L60.5841 9.55009L60.9685 9.66058L62.2199 5.30637L61.8355 5.19588ZM62.7305 4.55399C62.541 4.55399 62.35 4.59379 62.1866 4.6998C62.02 4.80799 61.8987 4.97456 61.8354 5.19618L62.22 5.30607C62.2595 5.16769 62.3268 5.08569 62.4044 5.03532C62.4854 4.98276 62.5944 4.95399 62.7305 4.95399V4.55399ZM63.0019 4.5771C62.9048 4.55282 62.7926 4.55399 62.7305 4.55399V4.95399C62.8056 4.95399 62.8649 4.95516 62.9049 4.96516L63.0019 4.5771ZM63.8048 5.42255C63.8048 4.91888 63.3543 4.65115 62.9946 4.57542L62.9122 4.96684C63.2039 5.02825 63.4048 5.20623 63.4048 5.42255H63.8048ZM63.7645 5.67677C63.7815 5.60882 63.8048 5.50138 63.8048 5.42255H63.4048C63.4048 5.44658 63.3938 5.51056 63.3765 5.57975L63.7645 5.67677ZM61.1553 13.8319L63.761 5.68922L63.38 5.56731L60.7744 13.71L61.1553 13.8319ZM59.9877 14.6567C60.2376 14.6567 60.484 14.6039 60.694 14.4683C60.9069 14.3308 61.0664 14.1186 61.1559 13.8303L60.7738 13.7117C60.709 13.9205 60.6028 14.0511 60.4771 14.1322C60.3485 14.2152 60.1835 14.2567 59.9877 14.2567V14.6567ZM58.7476 13.8179C58.8203 14.1192 58.991 14.3356 59.2214 14.4723C59.4462 14.6056 59.7164 14.6567 59.9877 14.6567V14.2567C59.7619 14.2567 59.5692 14.2135 59.4255 14.1282C59.2874 14.0463 59.1837 13.9199 59.1364 13.7241L58.7476 13.8179ZM57.6684 9.65553L58.7484 13.8212L59.1356 13.7208L58.0556 9.55515L57.6684 9.65553ZM56.945 6.09098C57.1678 7.37671 57.3747 8.51522 57.6684 9.65522L58.0557 9.55545C57.7665 8.43264 57.562 7.30833 57.3391 6.02267L56.945 6.09098ZM57.3278 6.15732L57.3392 6.09055L56.9449 6.02311L56.9335 6.08988L57.3278 6.15732ZM57.3271 6.16092L57.3271 6.16074L56.9341 6.08646L56.9341 6.08664L57.3271 6.16092ZM56.615 9.65796C56.9213 8.53503 57.1101 7.42993 57.3277 6.1575L56.9335 6.09007C56.7152 7.36594 56.5294 8.45168 56.2291 9.55271L56.615 9.65796ZM38.3423 9.87048C38.3423 9.26843 38.4437 8.66503 38.6477 8.05952L38.2687 7.93177C38.0515 8.57615 37.9423 9.22264 37.9423 9.87048H38.3423ZM39.639 13.2499C38.7745 12.3162 38.3423 11.1935 38.3423 9.87048H37.9423C37.9423 11.2903 38.41 12.5111 39.3455 13.5217L39.639 13.2499ZM43.5708 14.8002C41.8524 14.8002 40.5528 14.2772 39.6416 13.2529L39.3428 13.5187C40.3464 14.647 41.7658 15.2002 43.5708 15.2002V14.8002ZM47.4999 13.2529C46.5887 14.2772 45.2891 14.8002 43.5708 14.8002V15.2002C45.3757 15.2002 46.7951 14.647 47.7987 13.5187L47.4999 13.2529ZM48.7992 9.84444C48.7992 11.1675 48.3669 12.2996 47.5013 13.2512L47.7973 13.5204C48.7316 12.493 49.1992 11.2642 49.1992 9.84444H48.7992ZM47.5002 6.43637C48.3673 7.40645 48.7992 8.53942 48.7992 9.84444H49.1992C49.1992 8.44136 48.7312 7.21343 47.7984 6.1698L47.5002 6.43637ZM43.5708 4.91468C45.2901 4.91468 46.5901 5.42975 47.5009 6.43722L47.7977 6.16895C46.7937 5.05855 45.3747 4.51468 43.5708 4.51468V4.91468ZM39.6406 6.43721C40.5514 5.42975 41.8514 4.91468 43.5708 4.91468V4.51468C41.7669 4.51468 40.3478 5.05855 39.3439 6.16895L39.6406 6.43721ZM38.6459 8.06466C38.8665 7.46462 39.1974 6.92267 39.6399 6.43792L39.3445 6.16825C38.8679 6.69035 38.5094 7.27677 38.2705 7.92663L38.6459 8.06466ZM39.8092 9.87048C39.8092 10.3054 39.8692 10.7642 39.9873 11.2461L40.3758 11.1509C40.2641 10.6953 40.2092 10.2688 40.2092 9.87048H39.8092ZM40.7152 7.11489C40.1081 7.86708 39.8092 8.78988 39.8092 9.87048H40.2092C40.2092 8.86792 40.4847 8.03741 41.0265 7.36611L40.7152 7.11489ZM43.5708 5.73853C42.3632 5.73853 41.4022 6.1988 40.7109 7.1205L41.0309 7.36051C41.6416 6.54625 42.4805 6.13853 43.5708 6.13853V5.73853ZM46.434 7.12516C45.779 6.19724 44.8141 5.73853 43.5708 5.73853V6.13853C44.7018 6.13853 45.5368 6.5478 46.1072 7.35584L46.434 7.12516ZM47.3036 9.84444C47.3036 8.79837 47.0142 7.88672 46.4297 7.11932L46.1115 7.36168C46.6377 8.05249 46.9036 8.8768 46.9036 9.84444H47.3036ZM46.4348 12.6146C47.0134 11.7826 47.3036 10.8574 47.3036 9.84444H46.9036C46.9036 10.7757 46.6384 11.6212 46.1064 12.3863L46.4348 12.6146ZM43.5708 13.9764C44.8302 13.9764 45.7971 13.5285 46.4346 12.6149L46.1066 12.386C45.5569 13.1737 44.724 13.5764 43.5708 13.5764V13.9764ZM40.7121 12.622C41.404 13.5261 42.3648 13.9764 43.5708 13.9764V13.5764C42.4789 13.5764 41.6398 13.1761 41.0297 12.3789L40.7121 12.622ZM39.9893 11.2535C40.1312 11.7497 40.3742 12.2078 40.7159 12.6268L41.0259 12.3741C40.7165 11.9946 40.5 11.5847 40.3738 11.1435L39.9893 11.2535Z" fill="white" mask="url(#path-1-outside-1_2042_1817)"/>
</svg>
