<svg width="97" height="26" viewBox="0 0 97 26" fill="none" xmlns="http://www.w3.org/2000/svg">
<mask id="path-1-outside-1_378_539" maskUnits="userSpaceOnUse" x="33" y="6" width="64" height="16" fill="black">
<rect fill="white" x="33" y="6" width="64" height="16"/>
<path fill-rule="evenodd" clip-rule="evenodd" d="M39.9656 20.3541H35.7314C34.5143 20.3541 34 19.8226 34 18.5198V8.8514C34 7.53142 34.5143 7 35.7314 7H39.777C42.2456 7 43.6684 8.18284 43.6684 10.2399C43.6684 11.8685 42.9656 12.8285 41.4913 13.3085C43.2399 13.6685 44.1313 14.7999 44.1313 16.6513C44.1313 18.9827 42.6056 20.3541 39.9656 20.3541ZM35.5943 12.6399H39.6913C41.1656 12.6399 42.0227 11.8171 42.0227 10.4457C42.0227 9.10854 41.217 8.42283 39.6571 8.42283H36.0914C35.7657 8.42283 35.5943 8.62854 35.5943 8.9714V12.6399ZM35.5943 14.0456V18.3655C35.5943 18.7427 35.7657 18.9312 36.1428 18.9312H39.777C41.5085 18.9312 42.4341 18.0741 42.4341 16.497C42.4341 14.8856 41.4913 14.0456 39.7428 14.0456H35.5943ZM46.1298 17.2513V11.4399C46.1298 10.9771 46.4556 10.7542 46.9184 10.7542C47.3813 10.7542 47.707 10.9771 47.707 11.4399V16.9256C47.707 18.3998 48.307 19.2227 49.5755 19.2227C50.4841 19.2227 51.2212 18.7941 51.804 17.9884C52.2155 17.4055 52.3869 16.8741 52.3869 16.2056V11.4399C52.3869 10.9771 52.7126 10.7542 53.1754 10.7542C53.6212 10.7542 53.9469 10.9771 53.9469 11.4399V19.7712C53.9469 20.2341 53.6383 20.4569 53.1926 20.4569C52.7297 20.4569 52.404 20.2512 52.404 19.8226V19.3427C52.404 19.1541 52.4555 18.8112 52.5069 18.537C51.9755 19.7369 50.9812 20.6112 49.2669 20.6112C47.2441 20.6112 46.1298 19.3427 46.1298 17.2513ZM56.6499 11.4228V19.7712C56.6499 20.2341 56.9756 20.4569 57.4556 20.4569C57.8842 20.4569 58.227 20.2341 58.227 19.7712V15.0399C58.2442 14.3199 58.5013 13.6856 58.947 13.137C59.3756 12.5885 59.9413 12.2113 60.6784 12.1942C61.0227 12.1942 61.2416 12.2412 61.47 12.2903L61.5012 12.2971C61.5527 12.3142 61.6041 12.3142 61.6555 12.3142C62.0155 12.3142 62.2555 12.0056 62.3241 11.6456C62.3412 11.5428 62.3584 11.4399 62.3584 11.3542C62.3584 11.0285 62.2041 10.7885 61.8098 10.7371C61.5698 10.6857 61.3813 10.6514 61.1241 10.6514C61.0041 10.6514 60.8841 10.6514 60.747 10.6685C59.2727 10.7199 58.3984 11.7828 58.1242 12.6056C58.1359 12.5114 58.1518 12.4151 58.1675 12.3196C58.1975 12.1372 58.227 11.9575 58.227 11.7999V11.4228C58.227 10.9771 57.8842 10.7542 57.4556 10.7542C56.9756 10.7542 56.6499 10.9771 56.6499 11.4228ZM64.0493 19.7712V11.4228C64.0493 10.9771 64.375 10.7542 64.855 10.7542C65.2836 10.7542 65.6265 10.9771 65.6265 11.4228V11.7999C65.6265 11.9575 65.5969 12.1371 65.5669 12.3196L65.5669 12.3197C65.5512 12.4152 65.5354 12.5114 65.5236 12.6056C65.7979 11.7828 66.6721 10.7199 68.1464 10.6685C68.2836 10.6514 68.4035 10.6514 68.5235 10.6514C68.7807 10.6514 68.9693 10.6857 69.2093 10.7371C69.6035 10.7885 69.7578 11.0285 69.7578 11.3542C69.7578 11.4399 69.7407 11.5428 69.7235 11.6456C69.655 12.0056 69.415 12.3142 69.055 12.3142C69.0035 12.3142 68.9521 12.3142 68.9007 12.2971L68.8694 12.2903C68.641 12.2412 68.4222 12.1942 68.0778 12.1942C67.3407 12.2113 66.775 12.5885 66.3464 13.137C65.9007 13.6856 65.6436 14.3199 65.6265 15.0399V19.7712C65.6265 20.2341 65.2836 20.4569 64.855 20.4569C64.375 20.4569 64.0493 20.2341 64.0493 19.7712ZM89.4221 15.6053L88.2564 19.771C88.1192 20.2853 87.6907 20.4567 87.2107 20.4567C86.7478 20.4567 86.3707 20.2681 86.2164 19.771L83.7479 11.6283C83.7307 11.5597 83.7136 11.474 83.7136 11.4226C83.7136 11.0626 84.005 10.8568 84.3307 10.7883L84.3691 10.7818C84.4556 10.7671 84.5323 10.754 84.6221 10.754C84.9307 10.754 85.205 10.874 85.3078 11.2511L86.4907 15.6053C86.7821 16.7025 87.0221 17.8682 87.245 19.1367C87.2695 18.997 87.2936 18.8586 87.3175 18.7214L87.3177 18.7205C87.5109 17.6118 87.6904 16.5814 87.9649 15.6053L89.0792 11.4911C89.2335 10.9768 89.6621 10.754 90.142 10.754C90.6392 10.754 91.0677 10.9768 91.2049 11.4911L92.2677 15.6053C92.495 16.4574 92.6634 17.3801 92.8606 18.4611C92.9015 18.685 92.9436 18.9156 92.9877 19.1539C93.2277 17.7653 93.4849 16.6682 93.7763 15.6053L95.0277 11.2511C95.1305 10.8911 95.4048 10.754 95.7305 10.754C95.7991 10.754 95.8848 10.754 95.9534 10.7711C96.2791 10.8397 96.6048 11.0626 96.6048 11.4226C96.6048 11.474 96.5877 11.5597 96.5705 11.6283L93.9648 19.771C93.8106 20.2681 93.4334 20.4567 92.9877 20.4567C92.4906 20.4567 92.062 20.2681 91.942 19.771L90.862 15.6053C90.5706 14.4739 90.3649 13.3425 90.142 12.0568L90.1306 12.1236L90.1306 12.1238C89.9127 13.3979 89.7253 14.4934 89.4221 15.6053ZM71.4582 13.9956C71.2476 14.6206 71.1423 15.2455 71.1423 15.8705C71.1423 17.2419 71.5923 18.4137 72.4922 19.3858C73.4496 20.4621 74.8091 21.0002 76.5708 21.0002C78.3324 21.0002 79.6919 20.4621 80.6493 19.3858C81.5493 18.3963 81.9992 17.2158 81.9992 15.8444C81.9992 14.4904 81.5493 13.3099 80.6493 12.3031C79.6919 11.2442 78.3324 10.7147 76.5708 10.7147C74.8091 10.7147 73.4496 11.2442 72.4922 12.3031C72.0327 12.8065 71.688 13.3707 71.4582 13.9956ZM73.1815 17.1985C73.0667 16.7298 73.0092 16.2871 73.0092 15.8705C73.0092 14.8289 73.2964 13.9522 73.8709 13.2405C74.5219 12.3725 75.4219 11.9385 76.5708 11.9385C77.7579 11.9385 78.6579 12.3725 79.2706 13.2405C79.8259 13.9696 80.1036 14.8376 80.1036 15.8444C80.1036 16.8166 79.8259 17.7019 79.2706 18.5005C78.677 19.3511 77.7771 19.7764 76.5708 19.7764C75.4219 19.7764 74.5219 19.3511 73.8709 18.5005C73.5454 18.1012 73.3156 17.6672 73.1815 17.1985Z"/>
</mask>
<path fill-rule="evenodd" clip-rule="evenodd" d="M39.9656 20.3541H35.7314C34.5143 20.3541 34 19.8226 34 18.5198V8.8514C34 7.53142 34.5143 7 35.7314 7H39.777C42.2456 7 43.6684 8.18284 43.6684 10.2399C43.6684 11.8685 42.9656 12.8285 41.4913 13.3085C43.2399 13.6685 44.1313 14.7999 44.1313 16.6513C44.1313 18.9827 42.6056 20.3541 39.9656 20.3541ZM35.5943 12.6399H39.6913C41.1656 12.6399 42.0227 11.8171 42.0227 10.4457C42.0227 9.10854 41.217 8.42283 39.6571 8.42283H36.0914C35.7657 8.42283 35.5943 8.62854 35.5943 8.9714V12.6399ZM35.5943 14.0456V18.3655C35.5943 18.7427 35.7657 18.9312 36.1428 18.9312H39.777C41.5085 18.9312 42.4341 18.0741 42.4341 16.497C42.4341 14.8856 41.4913 14.0456 39.7428 14.0456H35.5943ZM46.1298 17.2513V11.4399C46.1298 10.9771 46.4556 10.7542 46.9184 10.7542C47.3813 10.7542 47.707 10.9771 47.707 11.4399V16.9256C47.707 18.3998 48.307 19.2227 49.5755 19.2227C50.4841 19.2227 51.2212 18.7941 51.804 17.9884C52.2155 17.4055 52.3869 16.8741 52.3869 16.2056V11.4399C52.3869 10.9771 52.7126 10.7542 53.1754 10.7542C53.6212 10.7542 53.9469 10.9771 53.9469 11.4399V19.7712C53.9469 20.2341 53.6383 20.4569 53.1926 20.4569C52.7297 20.4569 52.404 20.2512 52.404 19.8226V19.3427C52.404 19.1541 52.4555 18.8112 52.5069 18.537C51.9755 19.7369 50.9812 20.6112 49.2669 20.6112C47.2441 20.6112 46.1298 19.3427 46.1298 17.2513ZM56.6499 11.4228V19.7712C56.6499 20.2341 56.9756 20.4569 57.4556 20.4569C57.8842 20.4569 58.227 20.2341 58.227 19.7712V15.0399C58.2442 14.3199 58.5013 13.6856 58.947 13.137C59.3756 12.5885 59.9413 12.2113 60.6784 12.1942C61.0227 12.1942 61.2416 12.2412 61.47 12.2903L61.5012 12.2971C61.5527 12.3142 61.6041 12.3142 61.6555 12.3142C62.0155 12.3142 62.2555 12.0056 62.3241 11.6456C62.3412 11.5428 62.3584 11.4399 62.3584 11.3542C62.3584 11.0285 62.2041 10.7885 61.8098 10.7371C61.5698 10.6857 61.3813 10.6514 61.1241 10.6514C61.0041 10.6514 60.8841 10.6514 60.747 10.6685C59.2727 10.7199 58.3984 11.7828 58.1242 12.6056C58.1359 12.5114 58.1518 12.4151 58.1675 12.3196C58.1975 12.1372 58.227 11.9575 58.227 11.7999V11.4228C58.227 10.9771 57.8842 10.7542 57.4556 10.7542C56.9756 10.7542 56.6499 10.9771 56.6499 11.4228ZM64.0493 19.7712V11.4228C64.0493 10.9771 64.375 10.7542 64.855 10.7542C65.2836 10.7542 65.6265 10.9771 65.6265 11.4228V11.7999C65.6265 11.9575 65.5969 12.1371 65.5669 12.3196L65.5669 12.3197C65.5512 12.4152 65.5354 12.5114 65.5236 12.6056C65.7979 11.7828 66.6721 10.7199 68.1464 10.6685C68.2836 10.6514 68.4035 10.6514 68.5235 10.6514C68.7807 10.6514 68.9693 10.6857 69.2093 10.7371C69.6035 10.7885 69.7578 11.0285 69.7578 11.3542C69.7578 11.4399 69.7407 11.5428 69.7235 11.6456C69.655 12.0056 69.415 12.3142 69.055 12.3142C69.0035 12.3142 68.9521 12.3142 68.9007 12.2971L68.8694 12.2903C68.641 12.2412 68.4222 12.1942 68.0778 12.1942C67.3407 12.2113 66.775 12.5885 66.3464 13.137C65.9007 13.6856 65.6436 14.3199 65.6265 15.0399V19.7712C65.6265 20.2341 65.2836 20.4569 64.855 20.4569C64.375 20.4569 64.0493 20.2341 64.0493 19.7712ZM89.4221 15.6053L88.2564 19.771C88.1192 20.2853 87.6907 20.4567 87.2107 20.4567C86.7478 20.4567 86.3707 20.2681 86.2164 19.771L83.7479 11.6283C83.7307 11.5597 83.7136 11.474 83.7136 11.4226C83.7136 11.0626 84.005 10.8568 84.3307 10.7883L84.3691 10.7818C84.4556 10.7671 84.5323 10.754 84.6221 10.754C84.9307 10.754 85.205 10.874 85.3078 11.2511L86.4907 15.6053C86.7821 16.7025 87.0221 17.8682 87.245 19.1367C87.2695 18.997 87.2936 18.8586 87.3175 18.7214L87.3177 18.7205C87.5109 17.6118 87.6904 16.5814 87.9649 15.6053L89.0792 11.4911C89.2335 10.9768 89.6621 10.754 90.142 10.754C90.6392 10.754 91.0677 10.9768 91.2049 11.4911L92.2677 15.6053C92.495 16.4574 92.6634 17.3801 92.8606 18.4611C92.9015 18.685 92.9436 18.9156 92.9877 19.1539C93.2277 17.7653 93.4849 16.6682 93.7763 15.6053L95.0277 11.2511C95.1305 10.8911 95.4048 10.754 95.7305 10.754C95.7991 10.754 95.8848 10.754 95.9534 10.7711C96.2791 10.8397 96.6048 11.0626 96.6048 11.4226C96.6048 11.474 96.5877 11.5597 96.5705 11.6283L93.9648 19.771C93.8106 20.2681 93.4334 20.4567 92.9877 20.4567C92.4906 20.4567 92.062 20.2681 91.942 19.771L90.862 15.6053C90.5706 14.4739 90.3649 13.3425 90.142 12.0568L90.1306 12.1236L90.1306 12.1238C89.9127 13.3979 89.7253 14.4934 89.4221 15.6053ZM71.4582 13.9956C71.2476 14.6206 71.1423 15.2455 71.1423 15.8705C71.1423 17.2419 71.5923 18.4137 72.4922 19.3858C73.4496 20.4621 74.8091 21.0002 76.5708 21.0002C78.3324 21.0002 79.6919 20.4621 80.6493 19.3858C81.5493 18.3963 81.9992 17.2158 81.9992 15.8444C81.9992 14.4904 81.5493 13.3099 80.6493 12.3031C79.6919 11.2442 78.3324 10.7147 76.5708 10.7147C74.8091 10.7147 73.4496 11.2442 72.4922 12.3031C72.0327 12.8065 71.688 13.3707 71.4582 13.9956ZM73.1815 17.1985C73.0667 16.7298 73.0092 16.2871 73.0092 15.8705C73.0092 14.8289 73.2964 13.9522 73.8709 13.2405C74.5219 12.3725 75.4219 11.9385 76.5708 11.9385C77.7579 11.9385 78.6579 12.3725 79.2706 13.2405C79.8259 13.9696 80.1036 14.8376 80.1036 15.8444C80.1036 16.8166 79.8259 17.7019 79.2706 18.5005C78.677 19.3511 77.7771 19.7764 76.5708 19.7764C75.4219 19.7764 74.5219 19.3511 73.8709 18.5005C73.5454 18.1012 73.3156 17.6672 73.1815 17.1985Z" fill="white"/>
<path d="M41.4913 13.3085L41.4294 13.1183L40.7113 13.3521L41.451 13.5044L41.4913 13.3085ZM35.5943 12.6399H35.3943V12.8399H35.5943V12.6399ZM35.5943 14.0456V13.8456H35.3943V14.0456H35.5943ZM51.804 17.9884L51.9661 18.1056L51.9674 18.1037L51.804 17.9884ZM52.5069 18.537L52.7035 18.5738L52.324 18.456L52.5069 18.537ZM58.227 15.0399L58.027 15.0351V15.0399H58.227ZM58.947 13.137L59.1023 13.2632L59.1046 13.2602L58.947 13.137ZM60.6784 12.1942V11.9941L60.6738 11.9943L60.6784 12.1942ZM61.47 12.2903L61.4279 12.4859L61.428 12.4859L61.47 12.2903ZM61.5012 12.2971L61.5645 12.1073L61.554 12.1038L61.5432 12.1015L61.5012 12.2971ZM62.3241 11.6456L62.5206 11.6831L62.5214 11.6785L62.3241 11.6456ZM61.8098 10.7371L61.7679 10.9326L61.7759 10.9343L61.7839 10.9354L61.8098 10.7371ZM60.747 10.6685L60.754 10.8684L60.7629 10.8681L60.7718 10.867L60.747 10.6685ZM58.1242 12.6056L57.9257 12.5808L58.3139 12.6689L58.1242 12.6056ZM58.1675 12.3196L58.3648 12.3521V12.3521L58.1675 12.3196ZM65.5669 12.3196L65.764 12.3534L65.7643 12.3521L65.5669 12.3196ZM65.5669 12.3197L65.3698 12.2859L65.3695 12.2873L65.5669 12.3197ZM65.5236 12.6056L65.3251 12.5808L65.7133 12.6689L65.5236 12.6056ZM68.1464 10.6685L68.1534 10.8684L68.1623 10.8681L68.1712 10.867L68.1464 10.6685ZM69.2093 10.7371L69.1673 10.9326L69.1753 10.9343L69.1834 10.9354L69.2093 10.7371ZM69.7235 11.6456L69.92 11.6831L69.9208 11.6785L69.7235 11.6456ZM68.9007 12.2971L68.9639 12.1073L68.9535 12.1038L68.9427 12.1015L68.9007 12.2971ZM68.8694 12.2903L68.8274 12.4859L68.8274 12.4859L68.8694 12.2903ZM68.0778 12.1942V11.9941L68.0732 11.9943L68.0778 12.1942ZM66.3464 13.137L66.5017 13.2632L66.504 13.2602L66.3464 13.137ZM65.6265 15.0399L65.4265 15.0351V15.0399H65.6265ZM88.2564 19.771L88.0638 19.7171L88.0631 19.7195L88.2564 19.771ZM89.4221 15.6053L89.6147 15.6592L89.615 15.658L89.4221 15.6053ZM86.2164 19.771L86.025 19.829L86.0254 19.8303L86.2164 19.771ZM83.7479 11.6283L83.5536 11.6768L83.5565 11.6863L83.7479 11.6283ZM84.3307 10.7883L84.2974 10.5909L84.2895 10.5926L84.3307 10.7883ZM84.3691 10.7818L84.4025 10.979L84.4027 10.9789L84.3691 10.7818ZM85.3078 11.2511L85.5008 11.1987L85.5008 11.1985L85.3078 11.2511ZM86.4907 15.6053L86.684 15.554L86.6837 15.5529L86.4907 15.6053ZM87.245 19.1367L87.048 19.1713L87.4419 19.1713L87.245 19.1367ZM87.3175 18.7214L87.1207 18.6861L87.1205 18.687L87.3175 18.7214ZM87.3177 18.7205L87.5145 18.7558L87.5147 18.7549L87.3177 18.7205ZM87.9649 15.6053L88.1575 15.6595L88.158 15.6576L87.9649 15.6053ZM89.0792 11.4911L88.8876 11.4336L88.8862 11.4388L89.0792 11.4911ZM91.2049 11.4911L91.3985 11.4411L91.3981 11.4396L91.2049 11.4911ZM92.2677 15.6053L92.0741 15.6554L92.0745 15.6569L92.2677 15.6053ZM92.8606 18.4611L92.6639 18.497V18.497L92.8606 18.4611ZM92.9877 19.1539L92.7911 19.1903L93.1848 19.1879L92.9877 19.1539ZM93.7763 15.6053L93.584 15.5501L93.5834 15.5525L93.7763 15.6053ZM95.0277 11.2511L95.2199 11.3064L95.22 11.3061L95.0277 11.2511ZM95.9534 10.7711L95.9048 10.9653L95.9122 10.9668L95.9534 10.7711ZM96.5705 11.6283L96.7614 11.6893L96.7645 11.6768L96.5705 11.6283ZM93.9648 19.771L93.7744 19.71L93.7738 19.7117L93.9648 19.771ZM91.942 19.771L92.1365 19.7241L92.1356 19.7208L91.942 19.771ZM90.862 15.6053L90.6684 15.6552L90.6684 15.6555L90.862 15.6053ZM90.142 12.0568L90.3391 12.0227L89.9449 12.0231L90.142 12.0568ZM90.1306 12.1236L90.3272 12.1607L90.3278 12.1573L90.1306 12.1236ZM90.1306 12.1238L89.934 12.0866L89.9335 12.0901L90.1306 12.1238ZM71.4582 13.9956L71.2704 13.9266L71.2687 13.9318L71.4582 13.9956ZM72.4922 19.3858L72.6417 19.2528L72.639 19.2499L72.4922 19.3858ZM80.6493 19.3858L80.5013 19.2512L80.4999 19.2529L80.6493 19.3858ZM80.6493 12.3031L80.7984 12.1698L80.7977 12.169L80.6493 12.3031ZM72.4922 12.3031L72.6399 12.4379L72.6406 12.4372L72.4922 12.3031ZM73.1815 17.1985L72.9872 17.2461L72.9893 17.2535L73.1815 17.1985ZM73.8709 13.2405L74.0266 13.3662L74.0309 13.3605L73.8709 13.2405ZM79.2706 13.2405L79.1071 13.3559L79.1115 13.3617L79.2706 13.2405ZM79.2706 18.5005L79.4346 18.6149L79.4348 18.6146L79.2706 18.5005ZM73.8709 18.5005L74.0298 18.3788L74.0259 18.3741L73.8709 18.5005ZM35.7314 20.5541H39.9656V20.1541H35.7314V20.5541ZM33.8 18.5198C33.8 19.1906 33.9312 19.7123 34.2642 20.0632C34.5997 20.4166 35.099 20.5541 35.7314 20.5541V20.1541C35.1467 20.1541 34.7803 20.0258 34.5543 19.7878C34.326 19.5473 34.2 19.1518 34.2 18.5198H33.8ZM33.8 8.8514V18.5198H34.2V8.8514H33.8ZM35.7314 6.8C35.099 6.8 34.5993 6.93745 34.2637 7.29354C33.9309 7.64667 33.8 8.17258 33.8 8.8514H34.2C34.2 8.21024 34.3262 7.81044 34.5548 7.56788C34.7807 7.32826 35.1467 7.2 35.7314 7.2V6.8ZM39.777 6.8H35.7314V7.2H39.777V6.8ZM43.8684 10.2399C43.8684 9.16189 43.4934 8.29159 42.7764 7.69483C42.0646 7.10245 41.0404 6.8 39.777 6.8V7.2C40.9822 7.2 41.9037 7.48897 42.5205 8.00228C43.132 8.51123 43.4684 9.2609 43.4684 10.2399H43.8684ZM41.5532 13.4986C42.3189 13.2493 42.9041 12.8686 43.2954 12.3212C43.6864 11.7743 43.8684 11.0826 43.8684 10.2399H43.4684C43.4684 11.0258 43.299 11.6284 42.97 12.0886C42.6413 12.5484 42.1379 12.8876 41.4294 13.1183L41.5532 13.4986ZM44.3313 16.6513C44.3313 15.6939 44.1005 14.9005 43.624 14.2967C43.1468 13.692 42.4404 13.2997 41.5316 13.1126L41.451 13.5044C42.2907 13.6773 42.9044 14.0306 43.31 14.5445C43.7163 15.0593 43.9313 15.7572 43.9313 16.6513H44.3313ZM39.9656 20.5541C41.3183 20.5541 42.4129 20.2026 43.1715 19.5262C43.9334 18.847 44.3313 17.8625 44.3313 16.6513H43.9313C43.9313 17.7714 43.5663 18.6383 42.9053 19.2277C42.2412 19.8198 41.2529 20.1541 39.9656 20.1541V20.5541ZM39.6913 12.4399H35.5943V12.8399H39.6913V12.4399ZM41.8227 10.4457C41.8227 11.0888 41.6229 11.5802 41.2724 11.9118C40.9205 12.2448 40.3922 12.4399 39.6913 12.4399V12.8399C40.4647 12.8399 41.1021 12.6236 41.5473 12.2023C41.994 11.7797 42.2227 11.1739 42.2227 10.4457H41.8227ZM39.6571 8.62283C40.4119 8.62283 40.9489 8.78929 41.295 9.08491C41.6354 9.37563 41.8227 9.81852 41.8227 10.4457H42.2227C42.2227 9.73568 42.0072 9.16716 41.5548 8.78074C41.1081 8.39923 40.4621 8.22283 39.6571 8.22283V8.62283ZM36.0914 8.62283H39.6571V8.22283H36.0914V8.62283ZM35.7943 8.9714C35.7943 8.83079 35.8295 8.74733 35.8704 8.70121C35.9079 8.65886 35.9723 8.62283 36.0914 8.62283V8.22283C35.8847 8.22283 35.7006 8.28967 35.571 8.43588C35.4448 8.57833 35.3943 8.76915 35.3943 8.9714H35.7943ZM35.7943 12.6399V8.9714H35.3943V12.6399H35.7943ZM35.7943 18.3655V14.0456H35.3943V18.3655H35.7943ZM36.1428 18.7312C35.9851 18.7312 35.9103 18.692 35.8718 18.6517C35.8316 18.6096 35.7943 18.5279 35.7943 18.3655H35.3943C35.3943 18.5803 35.4427 18.7815 35.5824 18.9279C35.724 19.0762 35.9234 19.1312 36.1428 19.1312V18.7312ZM39.777 18.7312H36.1428V19.1312H39.777V18.7312ZM42.2341 16.497C42.2341 17.2461 42.0154 17.7946 41.6196 18.1582C41.2209 18.5244 40.6123 18.7312 39.777 18.7312V19.1312C40.6732 19.1312 41.3931 18.9095 41.8902 18.4528C42.39 17.9936 42.6341 17.325 42.6341 16.497H42.2341ZM39.7428 14.2456C40.5881 14.2456 41.2053 14.4488 41.6099 14.8153C42.0111 15.1786 42.2341 15.7307 42.2341 16.497H42.6341C42.6341 15.6519 42.3857 14.9782 41.8784 14.5188C41.3745 14.0624 40.646 13.8456 39.7428 13.8456V14.2456ZM35.5943 14.2456H39.7428V13.8456H35.5943V14.2456ZM45.9298 11.4399V17.2513H46.3298V11.4399H45.9298ZM46.9184 10.5542C46.658 10.5542 46.4105 10.6166 46.2242 10.7685C46.0318 10.9254 45.9298 11.1574 45.9298 11.4399H46.3298C46.3298 11.2596 46.3908 11.1488 46.4769 11.0785C46.5692 11.0033 46.716 10.9542 46.9184 10.9542V10.5542ZM47.907 11.4399C47.907 11.1574 47.805 10.9254 47.6126 10.7685C47.4264 10.6166 47.1788 10.5542 46.9184 10.5542V10.9542C47.1209 10.9542 47.2676 11.0033 47.3599 11.0785C47.446 11.1488 47.507 11.2596 47.507 11.4399H47.907ZM47.907 16.9256V11.4399H47.507V16.9256H47.907ZM49.5755 19.0227C48.9877 19.0227 48.5848 18.8345 48.3224 18.5029C48.0532 18.1627 47.907 17.6405 47.907 16.9256H47.507C47.507 17.6848 47.6607 18.3112 48.0087 18.751C48.3634 19.1994 48.8948 19.4227 49.5755 19.4227V19.0227ZM51.642 17.8712C51.0897 18.6346 50.4087 19.0227 49.5755 19.0227V19.4227C50.5594 19.4227 51.3527 18.9536 51.9661 18.1056L51.642 17.8712ZM52.1869 16.2056C52.1869 16.8307 52.0295 17.3222 51.6406 17.8731L51.9674 18.1037C52.4014 17.4889 52.5869 16.9176 52.5869 16.2056H52.1869ZM52.1869 11.4399V16.2056H52.5869V11.4399H52.1869ZM53.1754 10.5542C52.9151 10.5542 52.6675 10.6166 52.4812 10.7685C52.2888 10.9254 52.1869 11.1574 52.1869 11.4399H52.5869C52.5869 11.2596 52.6478 11.1488 52.734 11.0785C52.8263 11.0033 52.973 10.9542 53.1754 10.9542V10.5542ZM54.1469 11.4399C54.1469 11.1575 54.0451 10.9262 53.8559 10.7695C53.6722 10.6174 53.4288 10.5542 53.1754 10.5542V10.9542C53.3678 10.9542 53.5101 11.0025 53.6007 11.0775C53.6858 11.148 53.7469 11.2595 53.7469 11.4399H54.1469ZM54.1469 19.7712V11.4399H53.7469V19.7712H54.1469ZM53.1926 20.6569C53.4461 20.6569 53.6866 20.5937 53.8668 20.4397C54.0519 20.2814 54.1469 20.05 54.1469 19.7712H53.7469C53.7469 19.9552 53.6875 20.0667 53.6069 20.1356C53.5214 20.2087 53.3848 20.2569 53.1926 20.2569V20.6569ZM52.204 19.8226C52.204 20.0939 52.3105 20.314 52.5043 20.4602C52.6902 20.6003 52.9353 20.6569 53.1926 20.6569V20.2569C52.987 20.2569 52.8379 20.2107 52.7451 20.1408C52.6605 20.077 52.604 19.98 52.604 19.8226H52.204ZM52.204 19.3427V19.8226H52.604V19.3427H52.204ZM52.3103 18.5001C52.2591 18.7734 52.204 19.1332 52.204 19.3427H52.604C52.604 19.175 52.6519 18.8491 52.7035 18.5738L52.3103 18.5001ZM49.2669 20.8112C50.1597 20.8112 50.8779 20.5829 51.4448 20.1882C52.0104 19.7943 52.4127 19.2436 52.6898 18.6179L52.324 18.456C52.0697 19.0303 51.7091 19.5167 51.2162 19.8599C50.7245 20.2023 50.0884 20.4112 49.2669 20.4112V20.8112ZM45.9298 17.2513C45.9298 18.3308 46.2176 19.2249 46.7925 19.8508C47.3698 20.4792 48.2124 20.8112 49.2669 20.8112V20.4112C48.2986 20.4112 47.5728 20.1089 47.0871 19.5802C46.5992 19.049 46.3298 18.2631 46.3298 17.2513H45.9298ZM56.8499 19.7712V11.4228H56.4499V19.7712H56.8499ZM57.4556 20.2569C57.2431 20.2569 57.092 20.2072 56.998 20.1317C56.9107 20.0616 56.8499 19.9514 56.8499 19.7712H56.4499C56.4499 20.0539 56.552 20.2866 56.7475 20.4436C56.9364 20.5952 57.1881 20.6569 57.4556 20.6569V20.2569ZM58.027 19.7712C58.027 19.9483 57.9641 20.0605 57.8756 20.1326C57.7816 20.2093 57.6379 20.2569 57.4556 20.2569V20.6569C57.7019 20.6569 57.9439 20.5931 58.1284 20.4426C58.3186 20.2876 58.427 20.057 58.427 19.7712H58.027ZM58.027 15.0399V19.7712H58.427V15.0399H58.027ZM58.7918 13.0109C58.3208 13.5906 58.0454 14.2668 58.0271 15.0351L58.427 15.0446C58.443 14.3729 58.6818 13.7806 59.1022 13.2632L58.7918 13.0109ZM60.6738 11.9943C59.8611 12.0132 59.2441 12.4319 58.7894 13.0139L59.1046 13.2602C59.5071 12.745 60.0214 12.4095 60.6831 12.3941L60.6738 11.9943ZM61.512 12.0948C61.2805 12.045 61.0447 11.9942 60.6784 11.9942V12.3942C61.0008 12.3942 61.2027 12.4375 61.4279 12.4859L61.512 12.0948ZM61.5432 12.1015L61.512 12.0948L61.428 12.4859L61.4593 12.4926L61.5432 12.1015ZM61.6555 12.1142C61.5996 12.1142 61.5804 12.1126 61.5645 12.1073L61.438 12.4868C61.525 12.5158 61.6086 12.5142 61.6555 12.5142V12.1142ZM62.1276 11.6082C62.0679 11.9216 61.878 12.1142 61.6555 12.1142V12.5142C62.153 12.5142 62.4431 12.0897 62.5206 11.6831L62.1276 11.6082ZM62.1584 11.3542C62.1584 11.4199 62.1448 11.5048 62.1268 11.6128L62.5214 11.6785C62.5377 11.5808 62.5584 11.46 62.5584 11.3542H62.1584ZM61.7839 10.9354C61.9441 10.9563 62.0294 11.0112 62.0773 11.0696C62.127 11.1302 62.1584 11.2214 62.1584 11.3542H62.5584C62.5584 11.1614 62.5126 10.9697 62.3866 10.816C62.2588 10.6601 62.0699 10.5693 61.8357 10.5388L61.7839 10.9354ZM61.1241 10.8514C61.3601 10.8514 61.5324 10.8822 61.7679 10.9326L61.8517 10.5415C61.6072 10.4891 61.4024 10.4514 61.1241 10.4514V10.8514ZM60.7718 10.867C60.895 10.8516 61.0034 10.8514 61.1241 10.8514V10.4514C61.0049 10.4514 60.8732 10.4512 60.7222 10.4701L60.7718 10.867ZM58.3139 12.6689C58.569 11.9036 59.3839 10.9162 60.754 10.8684L60.74 10.4686C59.1616 10.5237 58.2279 11.6619 57.9344 12.5424L58.3139 12.6689ZM57.9701 12.2872C57.9545 12.382 57.938 12.4821 57.9257 12.5808L58.3226 12.6304C58.3338 12.5407 58.349 12.4483 58.3648 12.3521L57.9701 12.2872ZM58.027 11.7999C58.027 11.9378 58.0009 12.1002 57.9701 12.2872L58.3648 12.3521C58.3941 12.1741 58.427 11.9771 58.427 11.7999H58.027ZM58.027 11.4228V11.7999H58.427V11.4228H58.027ZM57.4556 10.9542C57.6379 10.9542 57.7825 11.0018 57.8771 11.0775C57.966 11.1486 58.027 11.2568 58.027 11.4228H58.427C58.427 11.1431 58.3166 10.9169 58.127 10.7652C57.943 10.618 57.7019 10.5542 57.4556 10.5542V10.9542ZM56.8499 11.4228C56.8499 11.2537 56.9088 11.1476 56.9965 11.0785C57.0911 11.0039 57.2432 10.9542 57.4556 10.9542V10.5542C57.188 10.5542 56.9372 10.6159 56.749 10.7643C56.5538 10.918 56.4499 11.1461 56.4499 11.4228H56.8499ZM63.8493 11.4228V19.7712H64.2493V11.4228H63.8493ZM64.855 10.5542C64.5875 10.5542 64.3367 10.6159 64.1484 10.7643C63.9533 10.918 63.8493 11.1461 63.8493 11.4228H64.2493C64.2493 11.2537 64.3083 11.1476 64.396 11.0785C64.4906 11.0039 64.6426 10.9542 64.855 10.9542V10.5542ZM65.8265 11.4228C65.8265 11.1431 65.7161 10.9169 65.5264 10.7652C65.3424 10.618 65.1013 10.5542 64.855 10.5542V10.9542C65.0373 10.9542 65.1819 11.0018 65.2765 11.0775C65.3654 11.1486 65.4265 11.2568 65.4265 11.4228H65.8265ZM65.8265 11.7999V11.4228H65.4265V11.7999H65.8265ZM65.7643 12.3521C65.7935 12.1741 65.8265 11.9771 65.8265 11.7999H65.4265C65.4265 11.9378 65.4003 12.1002 65.3696 12.2872L65.7643 12.3521ZM65.764 12.3535L65.764 12.3534L65.3698 12.2858L65.3698 12.2859L65.764 12.3535ZM65.7221 12.6304C65.7333 12.5407 65.7484 12.4483 65.7642 12.3522L65.3695 12.2873C65.354 12.382 65.3375 12.4821 65.3251 12.5808L65.7221 12.6304ZM68.1394 10.4686C66.561 10.5237 65.6273 11.6619 65.3339 12.5424L65.7133 12.6689C65.9684 11.9036 66.7833 10.9162 68.1534 10.8684L68.1394 10.4686ZM68.5235 10.4514C68.4043 10.4514 68.2727 10.4512 68.1216 10.4701L68.1712 10.867C68.2944 10.8516 68.4028 10.8514 68.5235 10.8514V10.4514ZM69.2512 10.5415C69.0067 10.4891 68.8018 10.4514 68.5235 10.4514V10.8514C68.7595 10.8514 68.9319 10.8822 69.1673 10.9326L69.2512 10.5415ZM69.9578 11.3542C69.9578 11.1614 69.9121 10.9697 69.786 10.816C69.6582 10.6601 69.4693 10.5693 69.2351 10.5388L69.1834 10.9354C69.3435 10.9563 69.4288 11.0112 69.4767 11.0696C69.5264 11.1302 69.5578 11.2214 69.5578 11.3542H69.9578ZM69.9208 11.6785C69.9371 11.5808 69.9578 11.46 69.9578 11.3542H69.5578C69.5578 11.4199 69.5442 11.5048 69.5263 11.6128L69.9208 11.6785ZM69.055 12.5142C69.5525 12.5142 69.8425 12.0897 69.92 11.6831L69.5271 11.6082C69.4674 11.9216 69.2775 12.1142 69.055 12.1142V12.5142ZM68.8374 12.4868C68.9244 12.5158 69.0081 12.5142 69.055 12.5142V12.1142C68.999 12.1142 68.9798 12.1126 68.9639 12.1073L68.8374 12.4868ZM68.8274 12.4859L68.8587 12.4926L68.9427 12.1015L68.9114 12.0948L68.8274 12.4859ZM68.0778 12.3942C68.4002 12.3942 68.6021 12.4375 68.8274 12.4859L68.9114 12.0948C68.6799 12.045 68.4441 11.9942 68.0778 11.9942V12.3942ZM66.504 13.2602C66.9065 12.745 67.4208 12.4095 68.0825 12.3941L68.0732 11.9943C67.2606 12.0132 66.6435 12.4319 66.1888 13.0139L66.504 13.2602ZM65.8264 15.0446C65.8424 14.3729 66.0812 13.7806 66.5017 13.2632L66.1912 13.0109C65.7202 13.5906 65.4448 14.2668 65.4265 15.0351L65.8264 15.0446ZM65.8265 19.7712V15.0399H65.4265V19.7712H65.8265ZM64.855 20.6569C65.1013 20.6569 65.3433 20.5931 65.5278 20.4426C65.718 20.2876 65.8265 20.057 65.8265 19.7712H65.4265C65.4265 19.9483 65.3635 20.0605 65.2751 20.1326C65.181 20.2093 65.0373 20.2569 64.855 20.2569V20.6569ZM63.8493 19.7712C63.8493 20.0539 63.9514 20.2866 64.147 20.4436C64.3358 20.5952 64.5875 20.6569 64.855 20.6569V20.2569C64.6425 20.2569 64.4914 20.2072 64.3974 20.1317C64.3101 20.0616 64.2493 19.9514 64.2493 19.7712H63.8493ZM88.449 19.8249L89.6147 15.6592L89.2295 15.5514L88.0638 19.7171L88.449 19.8249ZM87.2107 20.6567C87.4718 20.6567 87.7375 20.6105 87.9626 20.4796C88.1936 20.3453 88.3677 20.1297 88.4496 19.8225L88.0631 19.7195C88.0079 19.9266 87.8991 20.0538 87.7616 20.1338C87.6181 20.2172 87.4295 20.2567 87.2107 20.2567V20.6567ZM86.0254 19.8303C86.1149 20.1187 86.2746 20.3314 86.4903 20.4689C86.7028 20.6044 86.9534 20.6567 87.2107 20.6567V20.2567C87.0051 20.2567 86.8357 20.2147 86.7053 20.1316C86.5782 20.0506 86.4722 19.9204 86.4074 19.7117L86.0254 19.8303ZM83.5565 11.6863L86.025 19.829L86.4078 19.713L83.9393 11.5702L83.5565 11.6863ZM83.5136 11.4226C83.5136 11.5014 83.5369 11.6088 83.5538 11.6768L83.9419 11.5798C83.9246 11.5106 83.9136 11.4466 83.9136 11.4226H83.5136ZM84.2895 10.5926C83.9234 10.6697 83.5136 10.9234 83.5136 11.4226H83.9136C83.9136 11.2017 84.0867 11.044 84.3719 10.984L84.2895 10.5926ZM84.3358 10.5846L84.2974 10.5911L84.3641 10.9855L84.4025 10.979L84.3358 10.5846ZM84.6221 10.554C84.5131 10.554 84.4205 10.5702 84.3356 10.5846L84.4027 10.9789C84.4907 10.964 84.5516 10.954 84.6221 10.954V10.554ZM85.5008 11.1985C85.4381 10.9685 85.317 10.8001 85.1503 10.6929C84.9878 10.5884 84.8004 10.554 84.6221 10.554V10.954C84.7524 10.954 84.8565 10.9796 84.934 11.0294C85.0072 11.0765 85.0748 11.1566 85.1149 11.3037L85.5008 11.1985ZM86.6837 15.5529L85.5008 11.1987L85.1148 11.3036L86.2977 15.6578L86.6837 15.5529ZM87.4419 19.1021C87.2185 17.8303 86.9774 16.6585 86.684 15.554L86.2974 15.6567C86.5868 16.7464 86.8257 17.906 87.048 19.1713L87.4419 19.1021ZM87.1205 18.687C87.0966 18.8243 87.0725 18.9626 87.048 19.1021L87.4419 19.1713C87.4665 19.0315 87.4907 18.8929 87.5146 18.7557L87.1205 18.687ZM87.1208 18.6852L87.1207 18.6861L87.5144 18.7567L87.5145 18.7558L87.1208 18.6852ZM87.7724 15.5512C87.4946 16.5388 87.3135 17.5795 87.1206 18.6862L87.5147 18.7549C87.7083 17.644 87.8862 16.624 88.1575 15.6595L87.7724 15.5512ZM88.8862 11.4388L87.7719 15.5531L88.158 15.6576L89.2723 11.5434L88.8862 11.4388ZM90.142 10.554C89.5973 10.554 89.0735 10.8142 88.8876 11.4337L89.2708 11.5486C89.3935 11.1395 89.7268 10.954 90.142 10.954V10.554ZM91.3981 11.4396C91.3171 11.1357 91.1462 10.9092 90.9167 10.7615C90.6906 10.616 90.4191 10.554 90.142 10.554V10.954C90.3621 10.954 90.5535 11.0034 90.7002 11.0979C90.8436 11.1902 90.9555 11.3323 91.0116 11.5427L91.3981 11.4396ZM92.4614 15.5553L91.3985 11.4411L91.0112 11.5411L92.0741 15.6554L92.4614 15.5553ZM93.0574 18.4252C92.8605 17.3462 92.6907 16.4151 92.461 15.5538L92.0745 15.6569C92.2992 16.4997 92.4662 17.414 92.6639 18.497L93.0574 18.4252ZM93.1844 19.1174C93.1403 18.8795 93.0983 18.6491 93.0574 18.4252L92.6639 18.497C92.7047 18.7208 92.7469 18.9518 92.7911 19.1903L93.1844 19.1174ZM93.5834 15.5525C93.2904 16.621 93.0318 17.7244 92.7906 19.1198L93.1848 19.1879C93.4236 17.8062 93.6793 16.7154 93.9692 15.6582L93.5834 15.5525ZM94.8355 11.1959L93.5841 15.5501L93.9685 15.6606L95.2199 11.3064L94.8355 11.1959ZM95.7305 10.554C95.541 10.554 95.35 10.5938 95.1866 10.6998C95.02 10.808 94.8987 10.9746 94.8354 11.1962L95.22 11.3061C95.2595 11.1677 95.3268 11.0857 95.4044 11.0353C95.4854 10.9828 95.5944 10.954 95.7305 10.954V10.554ZM96.0019 10.5771C95.9048 10.5528 95.7926 10.554 95.7305 10.554V10.954C95.8056 10.954 95.8649 10.9552 95.9049 10.9652L96.0019 10.5771ZM96.8048 11.4226C96.8048 10.9189 96.3543 10.6512 95.9946 10.5754L95.9122 10.9668C96.2039 11.0282 96.4048 11.2062 96.4048 11.4226H96.8048ZM96.7645 11.6768C96.7815 11.6088 96.8048 11.5014 96.8048 11.4226H96.4048C96.4048 11.4466 96.3938 11.5106 96.3765 11.5798L96.7645 11.6768ZM94.1553 19.8319L96.761 11.6892L96.38 11.5673L93.7744 19.71L94.1553 19.8319ZM92.9877 20.6567C93.2376 20.6567 93.484 20.6039 93.694 20.4683C93.9069 20.3308 94.0664 20.1186 94.1559 19.8303L93.7738 19.7117C93.709 19.9205 93.6028 20.0511 93.4771 20.1322C93.3485 20.2152 93.1835 20.2567 92.9877 20.2567V20.6567ZM91.7476 19.8179C91.8203 20.1192 91.991 20.3356 92.2214 20.4723C92.4462 20.6056 92.7164 20.6567 92.9877 20.6567V20.2567C92.7619 20.2567 92.5692 20.2135 92.4255 20.1282C92.2874 20.0463 92.1837 19.9199 92.1364 19.7241L91.7476 19.8179ZM90.6684 15.6555L91.7484 19.8212L92.1356 19.7208L91.0556 15.5551L90.6684 15.6555ZM89.945 12.091C90.1678 13.3767 90.3747 14.5152 90.6684 15.6552L91.0557 15.5555C90.7665 14.4326 90.562 13.3083 90.3391 12.0227L89.945 12.091ZM90.3278 12.1573L90.3392 12.0905L89.9449 12.0231L89.9335 12.0899L90.3278 12.1573ZM90.3271 12.1609L90.3271 12.1607L89.9341 12.0865L89.9341 12.0866L90.3271 12.1609ZM89.615 15.658C89.9213 14.535 90.1101 13.4299 90.3277 12.1575L89.9335 12.0901C89.7152 13.3659 89.5294 14.4517 89.2291 15.5527L89.615 15.658ZM71.3423 15.8705C71.3423 15.2684 71.4437 14.665 71.6477 14.0595L71.2687 13.9318C71.0515 14.5761 70.9423 15.2226 70.9423 15.8705H71.3423ZM72.639 19.2499C71.7745 18.3162 71.3423 17.1935 71.3423 15.8705H70.9423C70.9423 17.2903 71.41 18.5111 72.3455 19.5217L72.639 19.2499ZM76.5708 20.8002C74.8524 20.8002 73.5528 20.2772 72.6416 19.2529L72.3428 19.5187C73.3464 20.647 74.7658 21.2002 76.5708 21.2002V20.8002ZM80.4999 19.2529C79.5887 20.2772 78.2891 20.8002 76.5708 20.8002V21.2002C78.3757 21.2002 79.7951 20.647 80.7987 19.5187L80.4999 19.2529ZM81.7992 15.8444C81.7992 17.1675 81.3669 18.2996 80.5013 19.2512L80.7973 19.5204C81.7316 18.493 82.1992 17.2642 82.1992 15.8444H81.7992ZM80.5002 12.4364C81.3673 13.4065 81.7992 14.5394 81.7992 15.8444H82.1992C82.1992 14.4414 81.7312 13.2134 80.7984 12.1698L80.5002 12.4364ZM76.5708 10.9147C78.2901 10.9147 79.5901 11.4297 80.5009 12.4372L80.7977 12.169C79.7937 11.0586 78.3747 10.5147 76.5708 10.5147V10.9147ZM72.6406 12.4372C73.5514 11.4297 74.8514 10.9147 76.5708 10.9147V10.5147C74.7669 10.5147 73.3478 11.0586 72.3439 12.169L72.6406 12.4372ZM71.6459 14.0647C71.8665 13.4646 72.1974 12.9227 72.6399 12.4379L72.3445 12.1682C71.8679 12.6904 71.5094 13.2768 71.2705 13.9266L71.6459 14.0647ZM72.8092 15.8705C72.8092 16.3054 72.8692 16.7642 72.9873 17.2461L73.3758 17.1509C73.2641 16.6953 73.2092 16.2688 73.2092 15.8705H72.8092ZM73.7152 13.1149C73.1081 13.8671 72.8092 14.7899 72.8092 15.8705H73.2092C73.2092 14.8679 73.4847 14.0374 74.0265 13.3661L73.7152 13.1149ZM76.5708 11.7385C75.3632 11.7385 74.4022 12.1988 73.7109 13.1205L74.0309 13.3605C74.6416 12.5462 75.4805 12.1385 76.5708 12.1385V11.7385ZM79.434 13.1252C78.779 12.1972 77.8141 11.7385 76.5708 11.7385V12.1385C77.7018 12.1385 78.5368 12.5478 79.1072 13.3558L79.434 13.1252ZM80.3036 15.8444C80.3036 14.7984 80.0142 13.8867 79.4297 13.1193L79.1115 13.3617C79.6377 14.0525 79.9036 14.8768 79.9036 15.8444H80.3036ZM79.4348 18.6146C80.0134 17.7826 80.3036 16.8574 80.3036 15.8444H79.9036C79.9036 16.7757 79.6384 17.6212 79.1064 18.3863L79.4348 18.6146ZM76.5708 19.9764C77.8302 19.9764 78.7971 19.5285 79.4346 18.6149L79.1066 18.386C78.5569 19.1737 77.724 19.5764 76.5708 19.5764V19.9764ZM73.7121 18.622C74.404 19.5261 75.3648 19.9764 76.5708 19.9764V19.5764C75.4789 19.5764 74.6398 19.1761 74.0297 18.3789L73.7121 18.622ZM72.9893 17.2535C73.1312 17.7497 73.3742 18.2078 73.7159 18.6268L74.0259 18.3741C73.7165 17.9946 73.5 17.5847 73.3738 17.1435L72.9893 17.2535Z" fill="white" mask="url(#path-1-outside-1_378_539)"/>
<circle cx="13" cy="13" r="13" fill="#D2FF3A"/>
<path d="M3.54541 13.5913C3.54541 18.0034 6.17167 22.9145 7.4848 24.8185C8.27268 25.2125 9.52016 25.5407 10.0454 25.6064C8.60097 23.3741 5.83026 18.2791 5.51511 14.1822C5.12117 9.06094 8.90253 6.88454 11.2272 6.30337C14.3787 5.51549 15.7575 5.90943 17.1363 6.50034C19.0862 7.33601 18.4211 9.5489 17.3333 10.6367C15.9545 12.0155 12.606 13.3943 10.8333 13.1973C9.06056 13.0003 10.4393 11.4246 12.606 10.8337C13.9049 10.4794 15.4949 10.5054 16.1515 10.6367C16.1515 10.6367 16.5454 10.4397 16.9394 10.0458C17.3411 9.64405 17.5959 9.32357 17.7272 9.06094C17.202 8.99529 15.7969 8.7064 13.5909 8.86398C10.8333 9.06094 8.61048 10.8613 8.27268 12.2125C7.87874 13.7882 9.4545 16.5458 15.5606 13.7882C21.6666 11.0306 20.2878 7.68217 19.8939 6.89429C19.5 6.10641 17.9242 3.74277 12.803 4.13671C7.68177 4.53065 3.54541 8.0761 3.54541 13.5913Z" fill="black"/>
<path d="M20.4848 15.364C21.4303 13.4731 20.5505 12.0155 19.8939 11.6216C20.0515 11.464 20.4848 10.5054 20.6818 10.0458C22.0606 11.0306 22.809 12.2912 22.6515 14.1822C22.4545 16.5458 20.6818 18.7125 17.1363 19.8943C13.5909 21.0761 10.4393 20.2882 9.84844 20.0912C9.25753 19.8943 8.46965 19.5003 8.66662 18.7125C8.8615 17.933 9.58581 18.0559 9.84844 18.1216C10.3737 18.3185 11.7 18.7125 13.5909 18.7125C15.9545 18.7125 19.303 17.7276 20.4848 15.364Z" fill="black"/>
</svg>
