<svg width="135" height="30" viewBox="0 0 135 30" fill="none" xmlns="http://www.w3.org/2000/svg">
<circle cx="15" cy="15" r="15" fill="#D2FF3A"/>
<mask id="path-2-outside-1_378_539" maskUnits="userSpaceOnUse" x="39.6416" y="4.29395" width="95" height="23" fill="black">
<rect fill="white" x="39.6416" y="4.29395" width="95" height="23"/>
<path fill-rule="evenodd" clip-rule="evenodd" d="M49.554 25.2445H43.2283C41.4099 25.2445 40.6416 24.4506 40.6416 22.5042V8.05988C40.6416 6.08787 41.4099 5.29395 43.2283 5.29395H49.2723C52.9602 5.29395 55.0859 7.06107 55.0859 10.1343C55.0859 12.5673 54.0359 14.0015 51.8334 14.7186C54.4456 15.2564 55.7774 16.9467 55.7774 19.7126C55.7774 23.1957 53.4981 25.2445 49.554 25.2445ZM43.0234 13.7198H49.1443C51.3468 13.7198 52.6273 12.4905 52.6273 10.4416C52.6273 8.44403 51.4236 7.41961 49.0931 7.41961H43.7661C43.2795 7.41961 43.0234 7.72694 43.0234 8.23915V13.7198ZM43.0234 15.8198V22.2737C43.0234 22.8371 43.2795 23.1188 43.8429 23.1188H49.2723C51.859 23.1188 53.242 21.8383 53.242 19.4821C53.242 17.0748 51.8334 15.8198 49.2211 15.8198H43.0234ZM58.7632 20.609V11.9271C58.7632 11.2356 59.2498 10.9026 59.9413 10.9026C60.6328 10.9026 61.1194 11.2356 61.1194 11.9271V20.1224C61.1194 22.3249 62.0157 23.5542 63.9109 23.5542C65.2683 23.5542 66.3695 22.9139 67.2403 21.7103C67.8549 20.8395 68.111 20.0456 68.111 19.0468V11.9271C68.111 11.2356 68.5976 10.9026 69.2891 10.9026C69.955 10.9026 70.4416 11.2356 70.4416 11.9271V24.3737C70.4416 25.0652 69.9806 25.3982 69.3147 25.3982C68.6232 25.3982 68.1366 25.0908 68.1366 24.4506V23.7335C68.1366 23.4518 68.2135 22.9396 68.2903 22.5298C67.4964 24.3225 66.011 25.6287 63.4499 25.6287C60.4279 25.6287 58.7632 23.7335 58.7632 20.609ZM74.4798 11.9014V24.3737C74.4798 25.0652 74.9664 25.3982 75.6835 25.3982C76.3238 25.3982 76.836 25.0652 76.836 24.3737V17.3053C76.8616 16.2296 77.2458 15.282 77.9116 14.4625C78.5519 13.643 79.397 13.0795 80.4983 13.0539C81.0127 13.0539 81.3397 13.1242 81.6809 13.1975L81.7276 13.2076C81.8044 13.2332 81.8813 13.2332 81.9581 13.2332C82.4959 13.2332 82.8545 12.7722 82.9569 12.2344C82.9825 12.0807 83.0081 11.9271 83.0081 11.799C83.0081 11.3124 82.7776 10.9539 82.1886 10.877C81.83 10.8002 81.5483 10.749 81.1642 10.749C80.9849 10.749 80.8056 10.749 80.6007 10.7746C78.3982 10.8514 77.0921 12.4393 76.6823 13.6686C76.6999 13.5279 76.7235 13.3843 76.747 13.2417L76.747 13.2416L76.747 13.2414L76.747 13.2413L76.747 13.2413L76.747 13.2412C76.7919 12.9686 76.836 12.7002 76.836 12.4649V11.9014C76.836 11.2356 76.3238 10.9026 75.6835 10.9026C74.9664 10.9026 74.4798 11.2356 74.4798 11.9014ZM85.5343 24.3737V11.9014C85.5343 11.2356 86.0209 10.9026 86.738 10.9026C87.3783 10.9026 87.8905 11.2356 87.8905 11.9014V12.4649C87.8905 12.7002 87.8464 12.9687 87.8015 13.2413C87.7781 13.384 87.7544 13.5278 87.7368 13.6686C88.1466 12.4393 89.4527 10.8514 91.6552 10.7746C91.8601 10.749 92.0394 10.749 92.2187 10.749C92.6028 10.749 92.8845 10.8002 93.2431 10.877C93.8321 10.9539 94.0626 11.3124 94.0626 11.799C94.0626 11.9271 94.037 12.0807 94.0114 12.2344C93.909 12.7722 93.5504 13.2332 93.0126 13.2332C92.9358 13.2332 92.8589 13.2332 92.7821 13.2076L92.7354 13.1975C92.3942 13.1242 92.0672 13.0539 91.5528 13.0539C90.4516 13.0795 89.6064 13.643 88.9661 14.4625C88.3003 15.282 87.9161 16.2296 87.8905 17.3053V24.3737C87.8905 25.0652 87.3783 25.3982 86.738 25.3982C86.0209 25.3982 85.5343 25.0652 85.5343 24.3737ZM123.44 18.1504L121.699 24.3737C121.494 25.1421 120.854 25.3982 120.137 25.3982C119.445 25.3982 118.882 25.1165 118.651 24.3737L114.963 12.2088C114.938 12.1063 114.912 11.9783 114.912 11.9015C114.912 11.3636 115.347 11.0563 115.834 10.9539L115.891 10.9442C116.021 10.9222 116.135 10.9026 116.269 10.9026C116.73 10.9026 117.14 11.0819 117.294 11.6453L119.061 18.1504C119.496 19.7895 119.855 21.531 120.188 23.4262C120.224 23.2178 120.26 23.0113 120.296 22.8066L120.296 22.8047C120.585 21.1481 120.853 19.6087 121.263 18.1504L122.928 12.0039C123.159 11.2356 123.799 10.9026 124.516 10.9026C125.259 10.9026 125.899 11.2356 126.104 12.0039L127.692 18.1504C128.031 19.4234 128.283 20.8019 128.577 22.4168L128.578 22.4224C128.639 22.7551 128.702 23.0978 128.767 23.4518C129.126 21.3773 129.51 19.7383 129.945 18.1504L131.815 11.6453C131.969 11.1075 132.378 10.9026 132.865 10.9026C132.967 10.9026 133.095 10.9026 133.198 10.9283C133.684 11.0307 134.171 11.3636 134.171 11.9015C134.171 11.9783 134.145 12.1063 134.12 12.2088L130.227 24.3737C129.997 25.1165 129.433 25.3982 128.767 25.3982C128.025 25.3982 127.384 25.1165 127.205 24.3737L125.592 18.1504C125.156 16.4601 124.849 14.7698 124.516 12.849L124.499 12.9487L124.499 12.9489C124.173 14.8525 123.893 16.4891 123.44 18.1504ZM96.603 15.7446C96.2883 16.6782 96.131 17.6119 96.131 18.5455C96.131 20.5944 96.8032 22.3449 98.1477 23.7973C99.5781 25.4052 101.609 26.2092 104.241 26.2092C106.873 26.2092 108.904 25.4052 110.334 23.7973C111.679 22.319 112.351 20.5555 112.351 18.5066C112.351 16.4837 111.679 14.7202 110.334 13.2159C108.904 11.6339 106.873 10.8429 104.241 10.8429C101.609 10.8429 99.5781 11.6339 98.1477 13.2159C97.4612 13.9681 96.9462 14.8109 96.603 15.7446ZM99.1776 20.5295C99.0059 19.8293 98.9201 19.1679 98.9201 18.5455C98.9201 16.9894 99.3492 15.6797 100.207 14.6164C101.18 13.3197 102.525 12.6713 104.241 12.6713C106.015 12.6713 107.359 13.3197 108.274 14.6164C109.104 15.7057 109.519 17.0024 109.519 18.5066C109.519 19.959 109.104 21.2816 108.274 22.4746C107.388 23.7454 106.043 24.3808 104.241 24.3808C102.525 24.3808 101.18 23.7454 100.207 22.4746C99.7211 21.8781 99.3778 21.2298 99.1776 20.5295Z"/>
</mask>
<path fill-rule="evenodd" clip-rule="evenodd" d="M49.554 25.2445H43.2283C41.4099 25.2445 40.6416 24.4506 40.6416 22.5042V8.05988C40.6416 6.08787 41.4099 5.29395 43.2283 5.29395H49.2723C52.9602 5.29395 55.0859 7.06107 55.0859 10.1343C55.0859 12.5673 54.0359 14.0015 51.8334 14.7186C54.4456 15.2564 55.7774 16.9467 55.7774 19.7126C55.7774 23.1957 53.4981 25.2445 49.554 25.2445ZM43.0234 13.7198H49.1443C51.3468 13.7198 52.6273 12.4905 52.6273 10.4416C52.6273 8.44403 51.4236 7.41961 49.0931 7.41961H43.7661C43.2795 7.41961 43.0234 7.72694 43.0234 8.23915V13.7198ZM43.0234 15.8198V22.2737C43.0234 22.8371 43.2795 23.1188 43.8429 23.1188H49.2723C51.859 23.1188 53.242 21.8383 53.242 19.4821C53.242 17.0748 51.8334 15.8198 49.2211 15.8198H43.0234ZM58.7632 20.609V11.9271C58.7632 11.2356 59.2498 10.9026 59.9413 10.9026C60.6328 10.9026 61.1194 11.2356 61.1194 11.9271V20.1224C61.1194 22.3249 62.0157 23.5542 63.9109 23.5542C65.2683 23.5542 66.3695 22.9139 67.2403 21.7103C67.8549 20.8395 68.111 20.0456 68.111 19.0468V11.9271C68.111 11.2356 68.5976 10.9026 69.2891 10.9026C69.955 10.9026 70.4416 11.2356 70.4416 11.9271V24.3737C70.4416 25.0652 69.9806 25.3982 69.3147 25.3982C68.6232 25.3982 68.1366 25.0908 68.1366 24.4506V23.7335C68.1366 23.4518 68.2135 22.9396 68.2903 22.5298C67.4964 24.3225 66.011 25.6287 63.4499 25.6287C60.4279 25.6287 58.7632 23.7335 58.7632 20.609ZM74.4798 11.9014V24.3737C74.4798 25.0652 74.9664 25.3982 75.6835 25.3982C76.3238 25.3982 76.836 25.0652 76.836 24.3737V17.3053C76.8616 16.2296 77.2458 15.282 77.9116 14.4625C78.5519 13.643 79.397 13.0795 80.4983 13.0539C81.0127 13.0539 81.3397 13.1242 81.6809 13.1975L81.7276 13.2076C81.8044 13.2332 81.8813 13.2332 81.9581 13.2332C82.4959 13.2332 82.8545 12.7722 82.9569 12.2344C82.9825 12.0807 83.0081 11.9271 83.0081 11.799C83.0081 11.3124 82.7776 10.9539 82.1886 10.877C81.83 10.8002 81.5483 10.749 81.1642 10.749C80.9849 10.749 80.8056 10.749 80.6007 10.7746C78.3982 10.8514 77.0921 12.4393 76.6823 13.6686C76.6999 13.5279 76.7235 13.3843 76.747 13.2417L76.747 13.2416L76.747 13.2414L76.747 13.2413L76.747 13.2413L76.747 13.2412C76.7919 12.9686 76.836 12.7002 76.836 12.4649V11.9014C76.836 11.2356 76.3238 10.9026 75.6835 10.9026C74.9664 10.9026 74.4798 11.2356 74.4798 11.9014ZM85.5343 24.3737V11.9014C85.5343 11.2356 86.0209 10.9026 86.738 10.9026C87.3783 10.9026 87.8905 11.2356 87.8905 11.9014V12.4649C87.8905 12.7002 87.8464 12.9687 87.8015 13.2413C87.7781 13.384 87.7544 13.5278 87.7368 13.6686C88.1466 12.4393 89.4527 10.8514 91.6552 10.7746C91.8601 10.749 92.0394 10.749 92.2187 10.749C92.6028 10.749 92.8845 10.8002 93.2431 10.877C93.8321 10.9539 94.0626 11.3124 94.0626 11.799C94.0626 11.9271 94.037 12.0807 94.0114 12.2344C93.909 12.7722 93.5504 13.2332 93.0126 13.2332C92.9358 13.2332 92.8589 13.2332 92.7821 13.2076L92.7354 13.1975C92.3942 13.1242 92.0672 13.0539 91.5528 13.0539C90.4516 13.0795 89.6064 13.643 88.9661 14.4625C88.3003 15.282 87.9161 16.2296 87.8905 17.3053V24.3737C87.8905 25.0652 87.3783 25.3982 86.738 25.3982C86.0209 25.3982 85.5343 25.0652 85.5343 24.3737ZM123.44 18.1504L121.699 24.3737C121.494 25.1421 120.854 25.3982 120.137 25.3982C119.445 25.3982 118.882 25.1165 118.651 24.3737L114.963 12.2088C114.938 12.1063 114.912 11.9783 114.912 11.9015C114.912 11.3636 115.347 11.0563 115.834 10.9539L115.891 10.9442C116.021 10.9222 116.135 10.9026 116.269 10.9026C116.73 10.9026 117.14 11.0819 117.294 11.6453L119.061 18.1504C119.496 19.7895 119.855 21.531 120.188 23.4262C120.224 23.2178 120.26 23.0113 120.296 22.8066L120.296 22.8047C120.585 21.1481 120.853 19.6087 121.263 18.1504L122.928 12.0039C123.159 11.2356 123.799 10.9026 124.516 10.9026C125.259 10.9026 125.899 11.2356 126.104 12.0039L127.692 18.1504C128.031 19.4234 128.283 20.8019 128.577 22.4168L128.578 22.4224C128.639 22.7551 128.702 23.0978 128.767 23.4518C129.126 21.3773 129.51 19.7383 129.945 18.1504L131.815 11.6453C131.969 11.1075 132.378 10.9026 132.865 10.9026C132.967 10.9026 133.095 10.9026 133.198 10.9283C133.684 11.0307 134.171 11.3636 134.171 11.9015C134.171 11.9783 134.145 12.1063 134.12 12.2088L130.227 24.3737C129.997 25.1165 129.433 25.3982 128.767 25.3982C128.025 25.3982 127.384 25.1165 127.205 24.3737L125.592 18.1504C125.156 16.4601 124.849 14.7698 124.516 12.849L124.499 12.9487L124.499 12.9489C124.173 14.8525 123.893 16.4891 123.44 18.1504ZM96.603 15.7446C96.2883 16.6782 96.131 17.6119 96.131 18.5455C96.131 20.5944 96.8032 22.3449 98.1477 23.7973C99.5781 25.4052 101.609 26.2092 104.241 26.2092C106.873 26.2092 108.904 25.4052 110.334 23.7973C111.679 22.319 112.351 20.5555 112.351 18.5066C112.351 16.4837 111.679 14.7202 110.334 13.2159C108.904 11.6339 106.873 10.8429 104.241 10.8429C101.609 10.8429 99.5781 11.6339 98.1477 13.2159C97.4612 13.9681 96.9462 14.8109 96.603 15.7446ZM99.1776 20.5295C99.0059 19.8293 98.9201 19.1679 98.9201 18.5455C98.9201 16.9894 99.3492 15.6797 100.207 14.6164C101.18 13.3197 102.525 12.6713 104.241 12.6713C106.015 12.6713 107.359 13.3197 108.274 14.6164C109.104 15.7057 109.519 17.0024 109.519 18.5066C109.519 19.959 109.104 21.2816 108.274 22.4746C107.388 23.7454 106.043 24.3808 104.241 24.3808C102.525 24.3808 101.18 23.7454 100.207 22.4746C99.7211 21.8781 99.3778 21.2298 99.1776 20.5295Z" fill="white"/>
<path d="M51.8334 14.7186L51.7715 14.5284L51.0534 14.7622L51.793 14.9145L51.8334 14.7186ZM43.0234 13.7198H42.8234V13.9198H43.0234V13.7198ZM43.0234 15.8198V15.6198H42.8234V15.8198H43.0234ZM67.2403 21.7103L67.4023 21.8275L67.4037 21.8256L67.2403 21.7103ZM68.2903 22.5298L68.4869 22.5666L68.1074 22.4488L68.2903 22.5298ZM76.836 17.3053L76.636 17.3005V17.3053H76.836ZM77.9116 14.4625L78.0669 14.5886L78.0692 14.5856L77.9116 14.4625ZM80.4983 13.0539V12.8539L80.4936 12.854L80.4983 13.0539ZM81.6809 13.1975L81.6388 13.3931L81.6389 13.3931L81.6809 13.1975ZM81.7276 13.2076L81.7908 13.0178L81.7804 13.0144L81.7696 13.012L81.7276 13.2076ZM82.9569 12.2344L83.1534 12.2718L83.1542 12.2673L82.9569 12.2344ZM82.1886 10.877L82.1467 11.0726L82.1546 11.0743L82.1627 11.0753L82.1886 10.877ZM80.6007 10.7746L80.6077 10.9745L80.6166 10.9742L80.6255 10.973L80.6007 10.7746ZM76.6823 13.6686L76.4839 13.6438L76.8721 13.7318L76.6823 13.6686ZM76.747 13.2417L76.9444 13.2742L76.9449 13.2705L76.747 13.2417ZM76.747 13.2416L76.5494 13.2106L76.5491 13.2128L76.747 13.2416ZM76.747 13.2414L76.9447 13.2724L76.9456 13.2648L76.747 13.2414ZM76.747 13.2413L76.5496 13.2077L76.5484 13.218L76.747 13.2413ZM76.747 13.2413L76.9443 13.2748L76.9452 13.2681L76.747 13.2413ZM76.747 13.2412L76.5496 13.2087L76.5489 13.2143L76.747 13.2412ZM87.8015 13.2413L87.9989 13.2737V13.2737L87.8015 13.2413ZM87.7368 13.6686L87.5384 13.6438L87.9266 13.7318L87.7368 13.6686ZM91.6552 10.7746L91.6622 10.9745L91.6712 10.9742L91.6801 10.973L91.6552 10.7746ZM93.2431 10.877L93.2012 11.0726L93.2092 11.0743L93.2172 11.0753L93.2431 10.877ZM94.0114 12.2344L94.2079 12.2718L94.2087 12.2673L94.0114 12.2344ZM92.7821 13.2076L92.8454 13.0178L92.8349 13.0144L92.8241 13.012L92.7821 13.2076ZM92.7354 13.1975L92.6933 13.3931L92.6934 13.3931L92.7354 13.1975ZM91.5528 13.0539V12.8539L91.5482 12.854L91.5528 13.0539ZM88.9661 14.4625L89.1214 14.5886L89.1237 14.5856L88.9661 14.4625ZM87.8905 17.3053L87.6905 17.3005V17.3053H87.8905ZM121.699 24.3737L121.506 24.3198L121.506 24.3222L121.699 24.3737ZM123.44 18.1504L123.633 18.2043L123.633 18.203L123.44 18.1504ZM118.651 24.3737L118.46 24.4318L118.46 24.433L118.651 24.3737ZM114.963 12.2088L114.769 12.2573L114.772 12.2668L114.963 12.2088ZM115.834 10.9539L115.801 10.7565L115.793 10.7582L115.834 10.9539ZM115.891 10.9442L115.925 11.1414L115.925 11.1413L115.891 10.9442ZM117.294 11.6453L117.487 11.5929L117.487 11.5927L117.294 11.6453ZM119.061 18.1504L119.254 18.0991L119.254 18.098L119.061 18.1504ZM120.188 23.4262L119.991 23.4608L120.385 23.4608L120.188 23.4262ZM120.296 22.8066L120.099 22.772L120.099 22.7723L120.296 22.8066ZM120.296 22.8047L120.493 22.8393L120.493 22.839L120.296 22.8047ZM121.263 18.1504L121.456 18.2046L121.456 18.2027L121.263 18.1504ZM122.928 12.0039L122.736 11.9464L122.735 11.9516L122.928 12.0039ZM126.104 12.0039L126.297 11.9539L126.297 11.9524L126.104 12.0039ZM127.692 18.1504L127.498 18.2004L127.498 18.2019L127.692 18.1504ZM128.577 22.4168L128.774 22.3812L128.774 22.3809L128.577 22.4168ZM128.578 22.4224L128.382 22.458L128.382 22.4583L128.578 22.4224ZM128.767 23.4518L128.571 23.4882L128.964 23.4858L128.767 23.4518ZM129.945 18.1504L129.753 18.0952L129.752 18.0975L129.945 18.1504ZM131.815 11.6453L132.007 11.7006L132.007 11.7003L131.815 11.6453ZM133.198 10.9283L133.149 11.1224L133.157 11.124L133.198 10.9283ZM134.12 12.2088L134.311 12.2699L134.314 12.2573L134.12 12.2088ZM130.227 24.3737L130.037 24.3128L130.036 24.3145L130.227 24.3737ZM127.205 24.3737L127.399 24.3268L127.399 24.3236L127.205 24.3737ZM125.592 18.1504L125.398 18.2003L125.398 18.2006L125.592 18.1504ZM124.516 12.849L124.713 12.8149L124.319 12.8153L124.516 12.849ZM124.499 12.9487L124.695 12.9874L124.696 12.9824L124.499 12.9487ZM124.499 12.9489L124.303 12.9101L124.302 12.9152L124.499 12.9489ZM96.603 15.7446L96.4152 15.6755L96.4134 15.6807L96.603 15.7446ZM98.1477 23.7973L98.2972 23.6643L98.2945 23.6614L98.1477 23.7973ZM110.334 23.7973L110.186 23.6627L110.185 23.6644L110.334 23.7973ZM110.334 13.2159L110.483 13.0827L110.483 13.0818L110.334 13.2159ZM98.1477 13.2159L98.2954 13.3508L98.2961 13.3501L98.1477 13.2159ZM99.1776 20.5295L98.9832 20.5772L98.9853 20.5845L99.1776 20.5295ZM100.207 14.6164L100.363 14.7421L100.367 14.7364L100.207 14.6164ZM108.274 14.6164L108.111 14.7318L108.115 14.7376L108.274 14.6164ZM108.274 22.4746L108.438 22.5891L108.439 22.5888L108.274 22.4746ZM100.207 22.4746L100.366 22.353L100.362 22.3482L100.207 22.4746ZM43.2283 25.4445H49.554V25.0445H43.2283V25.4445ZM40.4416 22.5042C40.4416 23.4968 40.6363 24.245 41.108 24.7419C41.5822 25.2414 42.2952 25.4445 43.2283 25.4445V25.0445C42.343 25.0445 41.7627 24.8506 41.3981 24.4665C41.0311 24.0799 40.8416 23.458 40.8416 22.5042H40.4416ZM40.4416 8.05988V22.5042H40.8416V8.05988H40.4416ZM43.2283 5.09395C42.2952 5.09395 41.5818 5.29702 41.1075 5.80024C40.636 6.3005 40.4416 7.05504 40.4416 8.05988H40.8416C40.8416 7.0927 41.0313 6.46427 41.3986 6.07458C41.7631 5.68783 42.343 5.49395 43.2283 5.49395V5.09395ZM49.2723 5.09395H43.2283V5.49395H49.2723V5.09395ZM55.2859 10.1343C55.2859 8.54819 54.7352 7.27778 53.69 6.40794C52.6501 5.54247 51.1454 5.09395 49.2723 5.09395V5.49395C51.0872 5.49395 52.4892 5.92899 53.4341 6.71539C54.3738 7.49742 54.8859 8.6472 54.8859 10.1343H55.2859ZM51.8953 14.9088C53.0251 14.5409 53.8791 13.9824 54.4483 13.1862C55.0171 12.3906 55.2859 11.3792 55.2859 10.1343H54.8859C54.8859 11.3224 54.6297 12.2447 54.1229 12.9536C53.6164 13.6621 52.8441 14.1792 51.7715 14.5284L51.8953 14.9088ZM55.9774 19.7126C55.9774 18.298 55.6366 17.1362 54.942 16.2562C54.2467 15.3753 53.2143 14.7987 51.8737 14.5227L51.793 14.9145C53.0647 15.1763 54.0043 15.7138 54.628 16.504C55.2523 17.295 55.5774 18.3613 55.5774 19.7126H55.9774ZM49.554 25.4445C51.5588 25.4445 53.1677 24.9237 54.2778 23.934C55.3911 22.9414 55.9774 21.4997 55.9774 19.7126H55.5774C55.5774 21.4086 55.024 22.7328 54.0116 23.6354C52.996 24.5409 51.4933 25.0445 49.554 25.0445V25.4445ZM49.1443 13.5198H43.0234V13.9198H49.1443V13.5198ZM52.4273 10.4416C52.4273 11.4235 52.1216 12.1859 51.5743 12.7038C51.0255 13.223 50.2092 13.5198 49.1443 13.5198V13.9198C50.2818 13.9198 51.2071 13.6019 51.8492 12.9943C52.4927 12.3853 52.8273 11.5086 52.8273 10.4416H52.4273ZM49.0931 7.61961C50.2332 7.61961 51.0623 7.87075 51.6042 8.33361C52.1405 8.79157 52.4273 9.48426 52.4273 10.4416H52.8273C52.8273 9.40142 52.5123 8.5831 51.864 8.02944C51.2215 7.48069 50.2834 7.21961 49.0931 7.21961V7.61961ZM43.7661 7.61961H49.0931V7.21961H43.7661V7.61961ZM43.2234 8.23915C43.2234 8.01386 43.2798 7.86266 43.3619 7.76996C43.4407 7.68104 43.5666 7.61961 43.7661 7.61961V7.21961C43.479 7.21961 43.2335 7.31185 43.0626 7.50464C42.895 7.69366 42.8234 7.95223 42.8234 8.23915H43.2234ZM43.2234 13.7198V8.23915H42.8234V13.7198H43.2234ZM43.2234 22.2737V15.8198H42.8234V22.2737H43.2234ZM43.8429 22.9188C43.592 22.9188 43.4495 22.8563 43.3665 22.7694C43.2818 22.6807 43.2234 22.5292 43.2234 22.2737H42.8234C42.8234 22.5816 42.893 22.8526 43.0772 23.0456C43.2632 23.2405 43.5304 23.3188 43.8429 23.3188V22.9188ZM49.2723 22.9188H43.8429V23.3188H49.2723V22.9188ZM53.042 19.4821C53.042 20.6208 52.7089 21.4699 52.0918 22.0368C51.472 22.6062 50.5353 22.9188 49.2723 22.9188V23.3188C50.5961 23.3188 51.6441 22.9912 52.3624 22.3313C53.0835 21.6689 53.4419 20.6997 53.4419 19.4821H53.042ZM49.2211 16.0198C50.4983 16.0198 51.4478 16.3268 52.0769 16.8965C52.7025 17.4631 53.042 18.3178 53.042 19.4821H53.4419C53.4419 18.2391 53.0771 17.2627 52.3454 16.6C51.6171 15.9404 50.5562 15.6198 49.2211 15.6198V16.0198ZM43.0234 16.0198H49.2211V15.6198H43.0234V16.0198ZM58.5632 11.9271V20.609H58.9632V11.9271H58.5632ZM59.9413 10.7026C59.5666 10.7026 59.2216 10.7925 58.9666 11.0005C58.7053 11.2135 58.5632 11.5302 58.5632 11.9271H58.9632C58.9632 11.6324 59.0644 11.4369 59.2193 11.3105C59.3804 11.1792 59.6245 11.1026 59.9413 11.1026V10.7026ZM61.3194 11.9271C61.3194 11.5302 61.1772 11.2135 60.916 11.0005C60.6609 10.7925 60.316 10.7026 59.9413 10.7026V11.1026C60.2581 11.1026 60.5022 11.1792 60.6632 11.3105C60.8182 11.4369 60.9194 11.6324 60.9194 11.9271H61.3194ZM61.3194 20.1224V11.9271H60.9194V20.1224H61.3194ZM63.9109 23.3542C63.0098 23.3542 62.3761 23.0644 61.9613 22.5401C61.5397 22.0074 61.3194 21.2015 61.3194 20.1224H60.9194C60.9194 21.2458 61.1472 22.1559 61.6476 22.7883C62.1548 23.4293 62.9169 23.7542 63.9109 23.7542V23.3542ZM67.0782 21.593C66.238 22.7545 65.1929 23.3542 63.9109 23.3542V23.7542C65.3436 23.7542 66.501 23.0734 67.4023 21.8275L67.0782 21.593ZM67.911 19.0468C67.911 20.0021 67.669 20.7561 67.0769 21.5949L67.4037 21.8256C68.0409 20.9229 68.311 20.089 68.311 19.0468H67.911ZM67.911 11.9271V19.0468H68.311V11.9271H67.911ZM69.2891 10.7026C68.9144 10.7026 68.5695 10.7925 68.3144 11.0005C68.0532 11.2135 67.911 11.5302 67.911 11.9271H68.311C68.311 11.6324 68.4122 11.4369 68.5672 11.3105C68.7282 11.1792 68.9723 11.1026 69.2891 11.1026V10.7026ZM70.6416 11.9271C70.6416 11.5303 70.4996 11.2143 70.2426 11.0015C69.9912 10.7933 69.6526 10.7026 69.2891 10.7026V11.1026C69.5915 11.1026 69.8291 11.1785 69.9875 11.3096C70.1403 11.4361 70.2416 11.6323 70.2416 11.9271H70.6416ZM70.6416 24.3737V11.9271H70.2416V24.3737H70.6416ZM69.3147 25.5982C69.6783 25.5982 70.012 25.5074 70.2578 25.2973C70.5085 25.083 70.6416 24.7669 70.6416 24.3737H70.2416C70.2416 24.6721 70.1441 24.8682 69.9979 24.9932C69.8468 25.1224 69.617 25.1982 69.3147 25.1982V25.5982ZM67.9366 24.4506C67.9366 24.8277 68.0833 25.1261 68.346 25.3242C68.6006 25.5161 68.9431 25.5982 69.3147 25.5982V25.1982C68.9948 25.1982 68.7483 25.1266 68.5868 25.0048C68.4333 24.8891 68.3366 24.7137 68.3366 24.4506H67.9366ZM67.9366 23.7335V24.4506H68.3366V23.7335H67.9366ZM68.0937 22.4929C68.0171 22.9017 67.9366 23.4309 67.9366 23.7335H68.3366C68.3366 23.4727 68.4099 22.9774 68.4869 22.5666L68.0937 22.4929ZM63.4499 25.8287C64.7661 25.8287 65.8188 25.4924 66.6471 24.9156C67.4741 24.3397 68.0648 23.5328 68.4732 22.6108L68.1074 22.4488C67.7218 23.3195 67.1729 24.0621 66.4185 24.5874C65.6654 25.1118 64.6948 25.4287 63.4499 25.4287V25.8287ZM58.5632 20.609C58.5632 22.2051 58.9886 23.5141 59.826 24.4258C60.6657 25.34 61.8958 25.8287 63.4499 25.8287V25.4287C61.982 25.4287 60.8687 24.9697 60.1206 24.1552C59.3702 23.3382 58.9632 22.1374 58.9632 20.609H58.5632ZM74.6798 24.3737V11.9014H74.2798V24.3737H74.6798ZM75.6835 25.1982C75.3525 25.1982 75.1019 25.1209 74.938 24.9893C74.7808 24.8631 74.6798 24.6682 74.6798 24.3737H74.2798C74.2798 24.7708 74.4221 25.0881 74.6875 25.3012C74.9462 25.5089 75.2975 25.5982 75.6835 25.5982V25.1982ZM76.636 24.3737C76.636 24.6651 76.5307 24.8621 76.3735 24.9903C76.2106 25.123 75.9716 25.1982 75.6835 25.1982V25.5982C76.0357 25.5982 76.3729 25.5068 76.6262 25.3003C76.8852 25.0891 77.036 24.7738 77.036 24.3737H76.636ZM76.636 17.3053V24.3737H77.036V17.3053H76.636ZM77.7564 14.3364C77.0652 15.187 76.6628 16.1765 76.636 17.3005L77.0359 17.31C77.0604 16.2827 77.4263 15.377 78.0669 14.5886L77.7564 14.3364ZM80.4936 12.854C79.3169 12.8813 78.4204 13.4864 77.754 14.3394L78.0692 14.5856C78.6834 13.7995 79.4772 13.2777 80.5029 13.2539L80.4936 12.854ZM81.7229 13.002C81.3785 12.928 81.0346 12.8539 80.4983 12.8539V13.2539C80.9907 13.2539 81.3008 13.3204 81.6388 13.3931L81.7229 13.002ZM81.7696 13.012L81.7229 13.002L81.6389 13.3931L81.6856 13.4031L81.7696 13.012ZM81.9581 13.0332C81.8767 13.0332 81.8321 13.0316 81.7908 13.0178L81.6643 13.3973C81.7767 13.4348 81.8858 13.4332 81.9581 13.4332V13.0332ZM82.7604 12.197C82.6669 12.6882 82.3584 13.0332 81.9581 13.0332V13.4332C82.6334 13.4332 83.042 12.8562 83.1534 12.2718L82.7604 12.197ZM82.8081 11.799C82.8081 11.907 82.7861 12.0427 82.7596 12.2015L83.1542 12.2673C83.1789 12.1187 83.2081 11.9471 83.2081 11.799H82.8081ZM82.1627 11.0753C82.4202 11.1089 82.5733 11.1998 82.6646 11.3112C82.7576 11.4247 82.8081 11.5857 82.8081 11.799H83.2081C83.2081 11.5257 83.1433 11.2642 82.9739 11.0575C82.8027 10.8488 82.546 10.722 82.2144 10.6787L82.1627 11.0753ZM81.1642 10.949C81.5272 10.949 81.7926 10.9967 82.1467 11.0726L82.2305 10.6815C81.8674 10.6037 81.5695 10.549 81.1642 10.549V10.949ZM80.6255 10.973C80.8165 10.9492 80.9841 10.949 81.1642 10.949V10.549C80.9856 10.549 80.7947 10.5488 80.5759 10.5761L80.6255 10.973ZM76.8721 13.7318C77.2626 12.5601 78.5094 11.0477 80.6077 10.9745L80.5938 10.5747C78.2871 10.6552 76.9216 12.3184 76.4926 13.6053L76.8721 13.7318ZM76.5496 13.2093C76.5263 13.3511 76.502 13.4986 76.4839 13.6438L76.8808 13.6934C76.8978 13.5572 76.9208 13.4174 76.9443 13.2742L76.5496 13.2093ZM76.5491 13.2128L76.549 13.2129L76.9449 13.2705L76.9449 13.2704L76.5491 13.2128ZM76.5494 13.2104L76.5494 13.2106L76.9446 13.2726L76.9446 13.2724L76.5494 13.2104ZM76.5484 13.218L76.5484 13.2181L76.9456 13.2648L76.9457 13.2647L76.5484 13.218ZM76.5499 13.2077L76.5499 13.2078L76.9442 13.2749L76.9442 13.2748L76.5499 13.2077ZM76.5489 13.2143L76.5489 13.2144L76.9452 13.2681L76.9452 13.2681L76.5489 13.2143ZM76.636 12.4649C76.636 12.6806 76.5952 12.9317 76.5497 13.2087L76.9444 13.2736C76.9885 13.0056 77.036 12.7198 77.036 12.4649H76.636ZM76.636 11.9014V12.4649H77.036V11.9014H76.636ZM75.6835 11.1026C75.9716 11.1026 76.2115 11.1778 76.3749 11.3085C76.5326 11.4347 76.636 11.6254 76.636 11.9014H77.036C77.036 11.5116 76.8833 11.203 76.6248 10.9962C76.372 10.794 76.0357 10.7026 75.6835 10.7026V11.1026ZM74.6798 11.9014C74.6798 11.6223 74.779 11.4336 74.9365 11.3094C75.101 11.1799 75.3525 11.1026 75.6835 11.1026V10.7026C75.2974 10.7026 74.9471 10.7919 74.689 10.9952C74.424 11.204 74.2798 11.5147 74.2798 11.9014H74.6798ZM85.3343 11.9014V24.3737H85.7343V11.9014H85.3343ZM86.738 10.7026C86.3519 10.7026 86.0016 10.7919 85.7435 10.9952C85.4785 11.204 85.3343 11.5147 85.3343 11.9014H85.7343C85.7343 11.6223 85.8335 11.4336 85.9911 11.3094C86.1555 11.1799 86.4071 11.1026 86.738 11.1026V10.7026ZM88.0905 11.9014C88.0905 11.5116 87.9378 11.203 87.6793 10.9962C87.4265 10.794 87.0902 10.7026 86.738 10.7026V11.1026C87.0261 11.1026 87.266 11.1778 87.4294 11.3085C87.5871 11.4347 87.6905 11.6254 87.6905 11.9014H88.0905ZM88.0905 12.4649V11.9014H87.6905V12.4649H88.0905ZM87.9989 13.2737C88.043 13.0057 88.0905 12.7198 88.0905 12.4649H87.6905C87.6905 12.6806 87.6498 12.9317 87.6042 13.2088L87.9989 13.2737ZM87.9353 13.6934C87.9523 13.5571 87.9753 13.4171 87.9989 13.2737L87.6042 13.2088C87.5809 13.3508 87.5565 13.4985 87.5384 13.6438L87.9353 13.6934ZM91.6483 10.5747C89.3416 10.6552 87.9761 12.3184 87.5471 13.6053L87.9266 13.7318C88.3172 12.5601 89.5639 11.0477 91.6622 10.9745L91.6483 10.5747ZM92.2187 10.549C92.0402 10.549 91.8493 10.5488 91.6304 10.5761L91.6801 10.973C91.871 10.9492 92.0386 10.949 92.2187 10.949V10.549ZM93.285 10.6815C92.9219 10.6037 92.624 10.549 92.2187 10.549V10.949C92.5817 10.949 92.8471 10.9967 93.2012 11.0726L93.285 10.6815ZM94.2626 11.799C94.2626 11.5257 94.1978 11.2642 94.0284 11.0575C93.8572 10.8488 93.6005 10.722 93.269 10.6787L93.2172 11.0753C93.4747 11.1089 93.6278 11.1998 93.7191 11.3112C93.8122 11.4247 93.8626 11.5857 93.8626 11.799H94.2626ZM94.2087 12.2673C94.2334 12.1187 94.2626 11.9471 94.2626 11.799H93.8626C93.8626 11.907 93.8406 12.0427 93.8141 12.2015L94.2087 12.2673ZM93.0126 13.4332C93.6879 13.4332 94.0966 12.8562 94.2079 12.2718L93.8149 12.197C93.7214 12.6882 93.4129 13.0332 93.0126 13.0332V13.4332ZM92.7189 13.3973C92.8312 13.4348 92.9403 13.4332 93.0126 13.4332V13.0332C92.9313 13.0332 92.8867 13.0316 92.8454 13.0178L92.7189 13.3973ZM92.6934 13.3931L92.7401 13.4031L92.8241 13.012L92.7774 13.002L92.6934 13.3931ZM91.5528 13.2539C92.0452 13.2539 92.3553 13.3204 92.6933 13.3931L92.7774 13.002C92.433 12.928 92.0891 12.8539 91.5528 12.8539V13.2539ZM89.1237 14.5856C89.7379 13.7995 90.5317 13.2777 91.5575 13.2539L91.5482 12.854C90.3714 12.8813 89.4749 13.4864 88.8085 14.3394L89.1237 14.5856ZM88.0905 17.31C88.1149 16.2827 88.4808 15.377 89.1214 14.5886L88.8109 14.3364C88.1198 15.187 87.7173 16.1765 87.6906 17.3005L88.0905 17.31ZM88.0905 24.3737V17.3053H87.6905V24.3737H88.0905ZM86.738 25.5982C87.0902 25.5982 87.4274 25.5068 87.6808 25.3003C87.9397 25.0891 88.0905 24.7738 88.0905 24.3737H87.6905C87.6905 24.6651 87.5852 24.8621 87.428 24.9903C87.2651 25.123 87.0262 25.1982 86.738 25.1982V25.5982ZM85.3343 24.3737C85.3343 24.7708 85.4767 25.0881 85.7421 25.3012C86.0007 25.5089 86.352 25.5982 86.738 25.5982V25.1982C86.407 25.1982 86.1564 25.1209 85.9925 24.9893C85.8353 24.8631 85.7343 24.6682 85.7343 24.3737H85.3343ZM121.891 24.4276L123.633 18.2043L123.248 18.0965L121.506 24.3199L121.891 24.4276ZM120.137 25.5982C120.516 25.5982 120.894 25.5308 121.21 25.347C121.532 25.1597 121.776 24.8594 121.892 24.4253L121.506 24.3222C121.416 24.6564 121.238 24.8683 121.009 25.0012C120.775 25.1375 120.474 25.1982 120.137 25.1982V25.5982ZM118.46 24.433C118.588 24.8443 118.813 25.1416 119.113 25.3331C119.411 25.5226 119.765 25.5982 120.137 25.5982V25.1982C119.817 25.1982 119.543 25.1329 119.328 24.9958C119.117 24.8608 118.945 24.6459 118.842 24.3145L118.46 24.433ZM114.772 12.2668L118.46 24.4318L118.843 24.3157L115.155 12.1508L114.772 12.2668ZM114.712 11.9015C114.712 12.0057 114.744 12.1555 114.769 12.2573L115.157 12.1603C115.131 12.0572 115.112 11.9509 115.112 11.9015H114.712ZM115.793 10.7582C115.266 10.8691 114.712 11.2244 114.712 11.9015H115.112C115.112 11.5028 115.429 11.2435 115.875 11.1496L115.793 10.7582ZM115.858 10.747L115.801 10.7567L115.867 11.1511L115.925 11.1414L115.858 10.747ZM116.269 10.7026C116.116 10.7026 115.985 10.7253 115.858 10.747L115.925 11.1413C116.056 11.1191 116.154 11.1026 116.269 11.1026V10.7026ZM117.487 11.5927C117.399 11.2696 117.231 11.0398 117.005 10.8945C116.783 10.7519 116.524 10.7026 116.269 10.7026V11.1026C116.476 11.1026 116.652 11.143 116.789 11.2309C116.921 11.3161 117.035 11.4577 117.101 11.698L117.487 11.5927ZM119.254 18.098L117.487 11.5929L117.101 11.6978L118.868 18.2028L119.254 18.098ZM120.385 23.3916C120.051 21.4931 119.692 19.7456 119.254 18.0991L118.868 18.2017C119.301 19.8334 119.658 21.5689 119.991 23.4608L120.385 23.3916ZM120.099 22.7723C120.063 22.977 120.027 23.1834 119.991 23.3916L120.385 23.4608C120.421 23.2523 120.457 23.0456 120.493 22.841L120.099 22.7723ZM120.099 22.77L120.099 22.772L120.493 22.8413L120.493 22.8393L120.099 22.77ZM121.071 18.0963C120.657 19.5661 120.388 21.1159 120.099 22.7703L120.493 22.839C120.782 21.1803 121.049 19.6513 121.456 18.2046L121.071 18.0963ZM122.735 11.9516L121.07 18.0981L121.456 18.2027L123.121 12.0562L122.735 11.9516ZM124.516 10.7026C123.734 10.7026 122.999 11.0729 122.736 11.9464L123.12 12.0614C123.319 11.3982 123.864 11.1026 124.516 11.1026V10.7026ZM126.297 11.9524C126.182 11.5215 125.941 11.2039 125.62 10.997C125.302 10.7921 124.916 10.7026 124.516 10.7026V11.1026C124.859 11.1026 125.164 11.1796 125.403 11.3333C125.639 11.4849 125.821 11.718 125.911 12.0554L126.297 11.9524ZM127.885 18.1004L126.297 11.9539L125.91 12.0539L127.498 18.2004L127.885 18.1004ZM128.774 22.3809C128.48 20.7679 128.227 19.3811 127.885 18.0989L127.498 18.2019C127.835 19.4657 128.086 20.8358 128.381 22.4527L128.774 22.3809ZM128.775 22.3868L128.774 22.3812L128.381 22.4524L128.382 22.458L128.775 22.3868ZM128.964 23.4154C128.898 23.0617 128.836 22.7192 128.775 22.3865L128.382 22.4583C128.442 22.791 128.505 23.134 128.571 23.4882L128.964 23.4154ZM129.752 18.0975C129.316 19.691 128.93 21.3364 128.57 23.4177L128.964 23.4858C129.322 21.4182 129.704 19.7855 130.138 18.2033L129.752 18.0975ZM131.623 11.5901L129.753 18.0952L130.138 18.2056L132.007 11.7006L131.623 11.5901ZM132.865 10.7026C132.595 10.7026 132.33 10.7594 132.106 10.9046C131.879 11.0519 131.711 11.2799 131.623 11.5904L132.007 11.7003C132.072 11.473 132.186 11.3296 132.324 11.2401C132.465 11.1484 132.648 11.1026 132.865 11.1026V10.7026ZM133.246 10.7342C133.115 10.7015 132.961 10.7026 132.865 10.7026V11.1026C132.974 11.1026 133.075 11.1038 133.149 11.1223L133.246 10.7342ZM134.371 11.9015C134.371 11.22 133.76 10.8421 133.239 10.7325L133.157 11.124C133.609 11.2192 133.971 11.5073 133.971 11.9015H134.371ZM134.314 12.2573C134.339 12.1555 134.371 12.0057 134.371 11.9015H133.971C133.971 11.9509 133.952 12.0572 133.926 12.1603L134.314 12.2573ZM130.418 24.4347L134.31 12.2697L133.929 12.1478L130.037 24.3128L130.418 24.4347ZM128.767 25.5982C129.127 25.5982 129.475 25.5221 129.769 25.3325C130.065 25.1411 130.29 24.8442 130.418 24.433L130.036 24.3145C129.933 24.646 129.761 24.8613 129.552 24.9964C129.34 25.1334 129.073 25.1982 128.767 25.1982V25.5982ZM127.011 24.4207C127.113 24.8447 127.351 25.1458 127.673 25.3365C127.989 25.5238 128.373 25.5982 128.767 25.5982V25.1982C128.419 25.1982 128.112 25.1317 127.877 24.9924C127.648 24.8566 127.476 24.6455 127.399 24.3268L127.011 24.4207ZM125.398 18.2006L127.011 24.4239L127.399 24.3236L125.785 18.1002L125.398 18.2006ZM124.319 12.8832C124.652 14.804 124.96 16.5014 125.398 18.2003L125.785 18.1005C125.352 16.4188 125.046 14.7356 124.713 12.8149L124.319 12.8832ZM124.696 12.9824L124.713 12.8828L124.319 12.8153L124.302 12.915L124.696 12.9824ZM124.695 12.9877L124.695 12.9874L124.303 12.9099L124.303 12.9101L124.695 12.9877ZM123.633 18.203C124.089 16.5308 124.371 14.8845 124.696 12.9826L124.302 12.9152C123.976 14.8205 123.697 16.4474 123.247 18.0978L123.633 18.203ZM96.331 18.5455C96.331 17.6348 96.4844 16.7227 96.7925 15.8085L96.4134 15.6807C96.0922 16.6338 95.931 17.589 95.931 18.5455H96.331ZM98.2945 23.6614C96.9855 22.2475 96.331 20.5459 96.331 18.5455H95.931C95.931 20.6428 96.6209 22.4424 98.001 23.9332L98.2945 23.6614ZM104.241 26.0092C101.652 26.0092 99.6812 25.2203 98.2972 23.6644L97.9983 23.9302C99.4749 25.5902 101.566 26.4092 104.241 26.4092V26.0092ZM110.185 23.6644C108.801 25.2203 106.829 26.0092 104.241 26.0092V26.4092C106.916 26.4092 109.007 25.5902 110.484 23.9302L110.185 23.6644ZM112.151 18.5066C112.151 20.5071 111.496 22.2223 110.186 23.6627L110.482 23.9319C111.861 22.4157 112.551 20.6038 112.551 18.5066H112.151ZM110.185 13.3492C111.497 14.8167 112.151 16.5327 112.151 18.5066H112.551C112.551 16.4347 111.861 14.6236 110.483 13.0827L110.185 13.3492ZM104.241 11.0429C106.83 11.0429 108.802 11.8195 110.186 13.3501L110.483 13.0818C109.006 11.4483 106.915 10.6429 104.241 10.6429V11.0429ZM98.2961 13.3501C99.6799 11.8195 101.651 11.0429 104.241 11.0429V10.6429C101.567 10.6429 99.4762 11.4483 97.9994 13.0818L98.2961 13.3501ZM96.7907 15.8136C97.1248 14.9049 97.6259 14.0842 98.2954 13.3508L98 13.0811C97.2964 13.8519 96.7677 14.717 96.4153 15.6756L96.7907 15.8136ZM98.7201 18.5455C98.7201 19.1863 98.8084 19.8637 98.9833 20.5771L99.3718 20.4819C99.2034 19.7949 99.1201 19.1496 99.1201 18.5455H98.7201ZM100.052 14.4908C99.1609 15.5946 98.7201 16.9504 98.7201 18.5455H99.1201C99.1201 17.0285 99.5375 15.7649 100.363 14.742L100.052 14.4908ZM104.241 12.4713C102.466 12.4713 101.06 13.146 100.047 14.4964L100.367 14.7364C101.3 13.4934 102.583 12.8713 104.241 12.8713V12.4713ZM108.438 14.5011C107.48 13.1444 106.071 12.4713 104.241 12.4713V12.8713C105.958 12.8713 107.238 13.495 108.111 14.7318L108.438 14.5011ZM109.719 18.5066C109.719 16.9632 109.292 15.6228 108.434 14.4952L108.115 14.7376C108.916 15.7886 109.319 17.0416 109.319 18.5066H109.719ZM108.439 22.5888C109.292 21.3623 109.719 19.9998 109.719 18.5066H109.319C109.319 19.9181 108.917 21.2009 108.11 22.3604L108.439 22.5888ZM104.241 24.5808C106.096 24.5808 107.508 23.9228 108.438 22.5891L108.11 22.3602C107.268 23.568 105.99 24.1808 104.241 24.1808V24.5808ZM100.049 22.5962C101.062 23.9204 102.468 24.5808 104.241 24.5808V24.1808C102.582 24.1808 101.298 23.5704 100.366 22.3531L100.049 22.5962ZM98.9853 20.5845C99.1934 21.3123 99.5499 21.9847 100.052 22.601L100.362 22.3482C99.8923 21.7716 99.5622 21.1472 99.3699 20.4745L98.9853 20.5845Z" fill="white" mask="url(#path-2-outside-1_378_539)"/>
<path d="M4.09082 15.682C4.09082 20.7729 7.12112 26.4395 8.63627 28.6365C9.54537 29.091 10.9848 29.4698 11.5908 29.5456C9.92415 26.9698 6.72718 21.091 6.36355 16.3638C5.909 10.4547 10.2721 7.94344 12.9545 7.27285C16.5908 6.36376 18.1817 6.81831 19.7726 7.50013C22.0225 8.46436 21.2551 11.0177 19.9999 12.2729C18.409 13.8638 14.5454 15.4547 12.4999 15.2274C10.4545 15.0001 12.0454 13.1819 14.5454 12.5001C16.0441 12.0914 17.8787 12.1213 18.6363 12.2729C18.6363 12.2729 19.0908 12.0456 19.5454 11.591C20.0089 11.1275 20.3029 10.7577 20.4545 10.4547C19.8484 10.3789 18.2272 10.0456 15.6817 10.2274C12.4999 10.4547 9.93514 12.532 9.54537 14.091C9.09082 15.9092 10.909 19.091 17.9545 15.9092C24.9999 12.7274 23.409 8.86377 22.9545 7.95468C22.4999 7.04559 20.6817 4.31832 14.7726 4.77286C8.86355 5.22741 4.09082 9.31832 4.09082 15.682Z" fill="black"/>
<path d="M23.6363 17.7274C24.7272 15.5456 23.712 13.8638 22.9545 13.4092C23.1363 13.2274 23.6363 12.1213 23.8635 11.591C25.4545 12.7274 26.3181 14.1819 26.1363 16.3638C25.909 19.091 23.8635 21.591 19.7726 22.9547C15.6817 24.3183 12.0454 23.4092 11.3635 23.1819C10.6817 22.9547 9.77264 22.5001 9.99991 21.591C10.2248 20.6916 11.0605 20.8335 11.3635 20.9092C11.9696 21.1365 13.4999 21.591 15.6817 21.591C18.409 21.591 22.2726 20.4547 23.6363 17.7274Z" fill="black"/>
</svg>
