<svg width="26" height="26" viewBox="0 0 26 26" fill="none" xmlns="http://www.w3.org/2000/svg">
<circle cx="13" cy="13" r="13" fill="#D2FF3A"/>
<path d="M3.54541 13.5913C3.54541 18.0034 6.17167 22.9145 7.4848 24.8185C8.27268 25.2125 9.52016 25.5407 10.0454 25.6064C8.60097 23.3741 5.83026 18.2791 5.51511 14.1822C5.12117 9.06094 8.90253 6.88454 11.2272 6.30337C14.3787 5.51549 15.7575 5.90943 17.1363 6.50034C19.0862 7.33601 18.4211 9.5489 17.3333 10.6367C15.9545 12.0155 12.606 13.3943 10.8333 13.1973C9.06056 13.0003 10.4393 11.4246 12.606 10.8337C13.9049 10.4794 15.4949 10.5054 16.1515 10.6367C16.1515 10.6367 16.5454 10.4397 16.9394 10.0458C17.3411 9.64405 17.5959 9.32357 17.7272 9.06094C17.202 8.99529 15.7969 8.7064 13.5909 8.86398C10.8333 9.06094 8.61048 10.8613 8.27268 12.2125C7.87874 13.7882 9.4545 16.5458 15.5606 13.7882C21.6666 11.0306 20.2878 7.68217 19.8939 6.89429C19.5 6.10641 17.9242 3.74277 12.803 4.13671C7.68177 4.53065 3.54541 8.0761 3.54541 13.5913Z" fill="black"/>
<path d="M20.4848 15.364C21.4303 13.4731 20.5505 12.0155 19.8939 11.6216C20.0515 11.464 20.4848 10.5054 20.6818 10.0458C22.0606 11.0306 22.809 12.2912 22.6515 14.1822C22.4545 16.5458 20.6818 18.7125 17.1363 19.8943C13.5909 21.0761 10.4393 20.2882 9.84844 20.0912C9.25753 19.8943 8.46965 19.5003 8.66662 18.7125C8.8615 17.933 9.58581 18.0559 9.84844 18.1216C10.3737 18.3185 11.7 18.7125 13.5909 18.7125C15.9545 18.7125 19.303 17.7276 20.4848 15.364Z" fill="black"/>
</svg>
