<svg width="67" height="47" viewBox="0 0 67 47" fill="none" xmlns="http://www.w3.org/2000/svg">
<g id="Group 24677">
<path id="Vector 323" d="M48.7249 16.547C48.5734 16.7779 48.6379 17.0879 48.8688 17.2394C49.0997 17.3908 49.4096 17.3264 49.5611 17.0955L48.7249 16.547ZM52.9858 0.646153C52.7905 0.450891 52.4739 0.450889 52.2787 0.646152L49.0967 3.82813C48.9014 4.02339 48.9014 4.33997 49.0967 4.53524C49.2919 4.7305 49.6085 4.7305 49.8038 4.53524L52.6322 1.70681L55.4606 4.53524C55.6559 4.73051 55.9725 4.73051 56.1677 4.53524C56.363 4.33998 56.363 4.0234 56.1677 3.82814L52.9858 0.646153ZM49.5611 17.0955C53.8151 10.6097 53.1322 5.82579 53.1322 0.999707L52.1322 0.999706C52.1322 5.89768 52.7855 10.3561 48.7249 16.547L49.5611 17.0955Z" fill="#FF6BA9"/>
<ellipse id="Ellipse 1549" cx="33.5" cy="40" rx="33.5" ry="7" fill="#626486"/>
<g id="Mask group">
<mask id="mask0_406_11584" style="mask-type:alpha" maskUnits="userSpaceOnUse" x="0" y="14" width="67" height="33">
<path id="Ellipse 1552" d="M67 39.875C67 43.81 52.0015 47 33.5 47C14.9985 47 0 43.81 0 39.875C0 35.94 14.9985 14 33.5 14C52.0015 14 67 35.94 67 39.875Z" fill="#14162B"/>
</mask>
<g mask="url(#mask0_406_11584)">
<g id="Group 24675">
<path id="Ellipse 1550" d="M52.9781 38.7931C52.9781 50.4813 43.5029 59.9564 31.8148 59.9564C20.1267 59.9564 10.6516 50.4813 10.6516 38.7931C10.6516 27.105 20.1267 18.3857 31.8148 18.3857C42.0185 18.3857 46.1756 23.2986 46.1756 23.2986C49.916 27.1157 52.9781 33.0268 52.9781 38.7931Z" fill="#FF6BA9" stroke="#14162B"/>
<circle id="Ellipse 1551" cx="35.5939" cy="41.8166" r="21.1632" fill="#FF6BA9" stroke="#14162B"/>
</g>
</g>
</g>
</g>
</svg>
