<svg width="67" height="48" viewBox="0 0 67 48" fill="none" xmlns="http://www.w3.org/2000/svg">
<g id="Group 24791">
<path id="Vector 323" d="M17.454 0.5C17.1779 0.5 16.954 0.723858 16.954 1C16.954 1.27614 17.1779 1.5 17.454 1.5V0.5ZM30.8257 14.2913C31.0699 14.4202 31.3724 14.3266 31.5012 14.0824L33.6009 10.1023C33.7297 9.85802 33.6362 9.55558 33.3919 9.42673C33.1477 9.29789 32.8452 9.39144 32.7164 9.63568L30.85 13.1736L27.3121 11.3072C27.0679 11.1784 26.7654 11.2719 26.6366 11.5162C26.5078 11.7604 26.6013 12.0629 26.8455 12.1917L30.8257 14.2913ZM17.454 1.5C22.6235 1.5 25.5014 3.44498 27.2892 5.92411C29.1132 8.45355 29.8261 11.5551 30.5813 13.9969L31.5367 13.7014C30.8131 11.362 30.0472 8.03905 28.1003 5.3392C26.1171 2.58904 22.9319 0.5 17.454 0.5V1.5Z" fill="#D2FF3A"/>
<ellipse id="Ellipse 1549" cx="33.5" cy="41" rx="33.5" ry="7" fill="#626486"/>
<g id="Mask group">
<mask id="mask0_406_11576" style="mask-type:alpha" maskUnits="userSpaceOnUse" x="0" y="15" width="67" height="33">
<path id="Ellipse 1552" d="M67 40.875C67 44.81 52.0015 48 33.5 48C14.9985 48 0 44.81 0 40.875C0 36.94 14.9985 15 33.5 15C52.0015 15 67 36.94 67 40.875Z" fill="#14162B"/>
</mask>
<g mask="url(#mask0_406_11576)">
<g id="Group 24675">
<path id="Ellipse 1550" d="M52.9781 38.7912C52.9781 50.4793 43.503 59.9544 31.8148 59.9544C20.1267 59.9544 10.6516 50.4793 10.6516 38.7912C10.6516 27.1031 20.1267 18.3838 31.8148 18.3838C42.0186 18.3838 46.1756 23.2967 46.1756 23.2967C49.916 27.1137 52.9781 33.0248 52.9781 38.7912Z" fill="#D2FF3A" stroke="#14162B"/>
<circle id="Ellipse 1551" cx="35.594" cy="41.8146" r="21.1632" fill="#D2FF3A" stroke="#14162B"/>
</g>
</g>
</g>
</g>
</svg>
