<svg width="338" height="323" viewBox="0 0 338 323" fill="none" xmlns="http://www.w3.org/2000/svg">
<path d="M81.7921 163.309C82.5144 163.096 83.1339 162.867 83.5527 162.669C83.5527 162.669 82.8028 163.06 81.7921 163.309C79.2354 164.064 75.39 164.634 74.5947 163.025C73.7447 161.306 75.5351 159.269 76.2973 158.481L143.04 82.7722C144.051 81.82 146.693 80.2747 149.181 81.7109C151.668 83.1471 180.988 113.588 195.337 128.628L113.679 152.158C110.381 153.108 106.857 152.899 103.695 151.565L100.706 150.304C100.051 150.027 99.3194 149.993 98.6414 150.205L80.5645 155.877C80.5645 155.877 75.4069 158.427 77.1735 161.75C78.2278 163.734 80.2958 163.677 81.7921 163.309Z" fill="#D2FF3A"/>
<path d="M83.5527 162.669C81.6518 163.568 75.6147 165.088 74.5947 163.025C73.7447 161.306 75.5351 159.269 76.2973 158.481L143.04 82.7722C144.051 81.82 146.693 80.2747 149.181 81.7109C151.668 83.1471 180.988 113.588 195.337 128.628L113.679 152.158C110.381 153.108 106.857 152.899 103.695 151.565L100.706 150.304C100.051 150.027 99.3194 149.993 98.6414 150.205L80.5645 155.877C80.5645 155.877 75.4069 158.427 77.1735 161.75C78.9401 165.074 83.5527 162.669 83.5527 162.669Z" stroke="#D2FF3A"/>
<path d="M80.361 168.197C77.0913 169.074 75.1733 169.173 73.5829 167.969C100.904 196.181 156.491 253.518 160.275 257.177C164.059 260.836 165.998 261.095 166.494 260.767C203.06 250.093 277.252 228.345 281.495 226.74C285.738 225.136 283.717 220.499 282.176 218.381C258.894 194.344 211.119 145.018 206.272 140.009C201.425 134.999 194.631 135.437 191.839 136.283L80.361 168.197Z" fill="#23253A"/>
<path d="M73.5829 167.969C71.0186 166.028 70.0499 161.323 72.8816 158.812L141.167 81.23C142.359 80.2292 145.394 78.6955 147.998 80.5677C150.603 82.4398 151.582 83.404 151.745 83.6521L194.992 128.429M73.5829 167.969C75.1733 169.173 77.0913 169.074 80.361 168.197L191.839 136.283C194.631 135.437 201.425 134.999 206.272 140.009C211.119 145.018 258.894 194.344 282.176 218.381C283.717 220.499 285.738 225.136 281.495 226.74C277.252 228.345 203.06 250.093 166.494 260.767C165.998 261.095 164.059 260.836 160.275 257.177C156.491 253.518 100.904 196.181 73.5829 167.969Z" stroke="#D2FF3A"/>
<ellipse cx="182.527" cy="91.9681" rx="31.3893" ry="30.9816" transform="rotate(-7.73985 182.527 91.9681)" fill="#D2FF3A" stroke="#23253A" stroke-width="2"/>
<ellipse cx="186.676" cy="92.2272" rx="28.9434" ry="30.9816" transform="rotate(-7.73985 186.676 92.2272)" fill="#D2FF3A" stroke="#23253A" stroke-width="2"/>
<path d="M283.982 224.029C284.017 223.436 284.171 221.467 284.502 218.341C284.833 215.215 283.374 212.316 282.604 211.257C260.177 187.867 214.013 139.686 208.773 134.081C203.533 128.476 197.633 128.11 195.338 128.628C173.693 134.822 130.047 147.425 114.361 151.956C110.619 153.037 106.624 152.8 103.036 151.286L101.282 150.546C100.252 150.111 99.1119 150.032 98.0348 150.332C94.1062 151.423 84.414 154.174 82.5219 155.256C88.9969 154.233 87.9759 159.7 85.589 161.39C81.7383 164.116 77.6543 165.479 75.3171 163.434C72.9799 161.39 76.3878 157.968 76.3878 157.968C76.3878 157.968 127.968 99.5308 142.5 82.6681C144.886 79.9001 149.159 81.3121 148.12 80.6085C144.95 78.464 141.978 80.3416 140.887 81.5485C120.565 104.706 78.6467 152.411 73.5496 157.968C68.4525 163.525 73.5496 168.205 75.3171 169.228" stroke="#D2FF3A"/>
<path d="M72.98 167.524C74.8884 169.705 78.696 168.881 80.3612 168.197L191.84 136.282C194.631 135.437 201.425 134.999 206.272 140.008C211.119 145.018 258.894 194.344 282.176 218.38C282.759 218.808 283.926 220.073 283.926 221.709" stroke="#D2FF3A"/>
<path d="M256.75 141.429C257.697 150.676 256.957 156.501 256.957 156.501C256.957 156.501 256.47 156.568 256.204 156.595C247.779 157.457 240.156 150.415 239.179 140.866C238.202 131.317 244.24 122.877 252.666 122.015C253.795 121.9 256.541 122.026 256.541 122.026C256.541 122.026 255.904 133.159 256.75 141.429Z" fill="#D2FF3A" stroke="#23253A" stroke-width="2"/>
<path d="M93.9402 201.032C105.557 192.64 113.905 189.137 113.905 189.137C113.905 189.137 114.369 189.736 114.611 190.071C122.257 200.655 118.73 216.261 106.734 224.926C94.7375 233.592 78.8144 232.035 71.1685 221.45C70.1442 220.032 68.1958 216.268 68.1958 216.268C68.1958 216.268 83.551 208.537 93.9402 201.032Z" fill="#D2FF3A" stroke="#23253A" stroke-width="2"/>
<ellipse cx="258.096" cy="139.33" rx="15.3354" ry="17.3801" transform="rotate(-5.84191 258.096 139.33)" fill="#D2FF3A" stroke="#23253A" stroke-width="2"/>
<ellipse cx="90.1003" cy="200.853" rx="23.6429" ry="26.7952" transform="rotate(-125.842 90.1003 200.853)" fill="#D2FF3A" stroke="#23253A" stroke-width="2"/>
<path d="M98.5968 108.507C97.0764 115.495 87.1799 119.275 76.4923 116.949C65.8048 114.624 58.3734 107.074 59.8939 100.086C60.4802 97.3908 60.753 95.2834 60.753 95.2834C64.8352 95.5397 74.9935 99.7108 81.5593 101.139C88.294 102.605 96.8373 101.874 99.6899 103.251C99.6899 103.251 99.1592 105.922 98.5968 108.507Z" fill="#D2FF3A" stroke="#23253A" stroke-width="2"/>
<ellipse cx="80.211" cy="99.5753" rx="19.8042" ry="12.9489" transform="rotate(12.2751 80.211 99.5753)" fill="#D2FF3A" stroke="#23253A" stroke-width="2"/>
<ellipse cx="3.64954" cy="5.58515" rx="3.64954" ry="5.58515" transform="matrix(-0.456076 -0.889941 -0.889941 0.456076 88.7751 160.005)" stroke="#D2FF3A"/>
<ellipse cx="1.28706" cy="1.96967" rx="1.28706" ry="1.96967" transform="matrix(-0.456076 -0.889941 -0.889941 0.456076 84.4802 159.551)" stroke="#D2FF3A"/>
<path d="M225.441 169.041C229.679 172.87 238.438 172.86 244.515 163.931C250.591 155.001 254.848 143.639 264.76 151.205C274.672 158.77 271.413 168.405 267.969 175.169C264.524 181.933 253.611 188.069 253.144 192.867C252.91 195.279 253.513 196.974 254.222 198.033L255.441 199.261C255.099 199.063 254.642 198.659 254.222 198.033L225.441 169.041Z" fill="#23253A"/>
<path d="M225.441 169.041C229.679 172.87 238.438 172.86 244.515 163.931C250.591 155.001 254.848 143.639 264.76 151.205C274.672 158.77 271.413 168.405 267.969 175.169C264.524 181.933 253.611 188.069 253.144 192.867C252.771 196.705 254.52 198.729 255.441 199.261" stroke="#D2FF3A"/>
<path d="M257.461 201.347L274.454 218.989C275.57 220.248 276.93 222.998 273.442 223.933C269.955 224.867 198.955 246.033 163.891 256.5" stroke="#D2FF3A" stroke-dasharray="4 4"/>
<path d="M224.059 168.244L203.081 145.537C201.77 143.552 197.732 139.961 192.064 141.48C186.396 142.998 117.2 162.902 83.3103 172.664" stroke="#D2FF3A" stroke-dasharray="4 4"/>
<path d="M186.368 153.689C190.349 152.465 194.68 153.595 197.556 156.607L225.015 185.362C230.648 191.262 228.126 201.026 220.339 203.458L192.827 212.052C185.623 214.302 177.766 212.306 172.511 206.889L148.445 182.088C142.722 176.19 145.252 166.328 153.108 163.913L186.368 153.689Z" fill="#23253A" stroke="#D2FF3A"/>
<path d="M147.396 174.631C144.861 171.669 144.758 168.774 145.792 167.085C146.305 166.247 147.285 165.881 148.222 165.589L186.328 153.728C190.329 152.482 194.69 153.618 197.575 156.657L228.131 188.847C229.394 190.177 230.625 191.94 229.852 193.603C229.213 194.975 227.861 195.845 226.988 196.186L193.54 206.824C186.531 209.053 178.867 207.259 173.69 202.033C163.103 191.345 149.852 177.501 147.396 174.631Z" fill="#D2FF3A"/>
<path d="M194.134 200.767C187.54 198.985 180.173 195.549 174.884 190.657C168.852 185.078 167.631 176.654 175.498 170.209C184.324 162.978 194.557 162.128 196.692 167.855C198.399 172.436 195.394 177.632 187.669 181.653C178.84 186.248 177.102 180.699 180.115 177.294C182.526 174.569 187.436 171.304 191.516 170.762M202.008 172.396C202.008 172.396 205.187 172.232 206.029 176.115C206.944 180.339 201.376 189.263 188.877 191.965" stroke="#23253A" stroke-width="6" stroke-linecap="round" stroke-linejoin="round"/>
<ellipse cx="260.599" cy="163.011" rx="6.78196" ry="9.17629" transform="rotate(13.7256 260.599 163.011)" fill="#2E2E2E" stroke="#D2FF3A"/>
<ellipse cx="262.653" cy="163.348" rx="6.78196" ry="9.17629" transform="rotate(13.7256 262.653 163.348)" fill="#23253A" stroke="#D2FF3A"/>
</svg>
