<svg width="28" height="28" viewBox="0 0 28 28" fill="none" xmlns="http://www.w3.org/2000/svg">
<circle cx="14" cy="14" r="14" fill="#7C89FF"/>
<path d="M14.5375 10.1605H13.45V13.2699H6.99683V10.7746C6.99683 10.3808 7.31089 10.0668 7.7062 10.0668H10.6468C9.8562 9.90269 9.26558 9.56363 9.24214 8.93863C9.22026 8.20426 10.05 7.01519 11.2593 7.28707C12.5093 7.56832 13.3828 8.53551 14.0515 9.36363C14.7265 8.51988 15.6828 7.43082 16.9859 7.25894C18.0765 7.12144 18.9765 8.20894 18.8609 8.92769C18.7625 9.55738 18.1593 9.89957 17.389 10.0652H20.2921C20.6859 10.0652 21.0015 10.3808 21.0015 10.773V13.2683H14.5515M11.3937 7.94019C10.7906 7.70269 10.4375 7.95738 10.1828 8.37769C10.0437 8.61519 9.89683 8.93082 10.1171 9.16051C10.6968 9.75738 12.289 9.71363 13.3578 9.60269C12.8515 8.97457 12.2328 8.27144 11.3937 7.94019ZM17.989 9.15582C18.4046 8.62457 17.5906 7.52144 16.7171 7.92769C15.8812 8.32144 15.2796 8.96051 14.7609 9.59176C15.2078 9.63082 15.6609 9.64019 16.1109 9.61832C16.6578 9.59644 17.6687 9.55894 17.989 9.15582ZM7.75776 13.8418V18.3621C7.75776 19.7605 8.90308 20.9058 10.3015 20.9058H13.4578V13.8418H7.75776ZM14.5421 13.8418V20.9058H17.7C19.0984 20.9058 20.2437 19.7605 20.2437 18.3621V13.8418H14.5421Z" fill="white"/>
</svg>
